<svg width="3126" height="1464" viewBox="0 0 3126 1464" fill="none" xmlns="http://www.w3.org/2000/svg">
<path opacity="0.2" d="M71.0015 21.3203H-0.0664062V92.3883M71.0015 21.3203V92.3883M71.0015 21.3203H142.069M71.0015 92.3883H-0.0664062M71.0015 92.3883V163.456M71.0015 92.3883H142.069M-0.0664062 92.3883V163.456M71.0015 163.456H-0.0664062M71.0015 163.456V234.524M71.0015 163.456H142.069M-0.0664062 163.456V234.524M71.0015 234.524H-0.0664062M71.0015 234.524V305.592M71.0015 234.524H142.069M-0.0664062 234.524V305.592M71.0015 305.592H-0.0664062M71.0015 305.592V376.66M71.0015 305.592H142.069M-0.0664062 305.592V376.66M71.0015 376.66H-0.0664062M71.0015 376.66V447.728M71.0015 376.66H142.069M-0.0664062 376.66V447.728M71.0015 447.728H-0.0664062M71.0015 447.728V518.796M71.0015 447.728H142.069M-0.0664062 447.728V518.796M71.0015 518.796H-0.0664062M71.0015 518.796V589.864M71.0015 518.796H142.069M-0.0664062 518.796V589.864M71.0015 589.864H-0.0664062M71.0015 589.864V660.932M71.0015 589.864H142.069M-0.0664062 589.864V660.932M71.0015 660.932H-0.0664062M71.0015 660.932V732M71.0015 660.932H142.069M-0.0664062 660.932V732M71.0015 732H-0.0664062M71.0015 732V803.068M71.0015 732H142.069M-0.0664062 732V803.068M71.0015 803.068H-0.0664062M71.0015 803.068V874.136M71.0015 803.068H142.069M-0.0664062 803.068V874.136M71.0015 874.136H-0.0664062M71.0015 874.136V945.204M71.0015 874.136H142.069M-0.0664062 874.136V945.204M71.0015 945.204H-0.0664062M71.0015 945.204V1016.27M71.0015 945.204H142.069M-0.0664062 945.204V1016.27M71.0015 1016.27H-0.0664062M71.0015 1016.27V1087.34M71.0015 1016.27H142.069M-0.0664062 1016.27V1087.34M71.0015 1087.34H-0.0664062M71.0015 1087.34V1158.41M71.0015 1087.34H142.069M-0.0664062 1087.34V1158.41M71.0015 1158.41H-0.0664062M71.0015 1158.41V1229.48M71.0015 1158.41H142.069M-0.0664062 1158.41V1229.48M71.0015 1229.48H-0.0664062M71.0015 1229.48V1300.54M71.0015 1229.48H142.069M-0.0664062 1229.48V1300.54M71.0015 1300.54H-0.0664062M71.0015 1300.54V1371.61M71.0015 1300.54H142.069M-0.0664062 1300.54V1371.61M71.0015 1371.61H-0.0664062M71.0015 1371.61V1442.68M71.0015 1371.61H142.069M-0.0664062 1371.61V1442.68H71.0015M71.0015 1442.68H142.069M142.069 21.3203V92.3883M142.069 21.3203H213.137M142.069 92.3883V163.456M142.069 92.3883H213.137M142.069 163.456V234.524M142.069 163.456H213.137M142.069 234.524V305.592M142.069 234.524H213.137M142.069 305.592V376.66M142.069 305.592H213.137M142.069 376.66V447.728M142.069 376.66H213.137M142.069 447.728V518.796M142.069 447.728H213.137M142.069 518.796V589.864M142.069 518.796H213.137M142.069 589.864V660.932M142.069 589.864H213.137M142.069 660.932V732M142.069 660.932H213.137M142.069 732V803.068M142.069 732H213.137M142.069 803.068V874.136M142.069 803.068H213.137M142.069 874.136V945.204M142.069 874.136H213.137M142.069 945.204V1016.27M142.069 945.204H213.137M142.069 1016.27V1087.34M142.069 1016.27H213.137M142.069 1087.34V1158.41M142.069 1087.34H213.137M142.069 1158.41V1229.48M142.069 1158.41H213.137M142.069 1229.48V1300.54M142.069 1229.48H213.137M142.069 1300.54V1371.61M142.069 1300.54H213.137M142.069 1371.61V1442.68M142.069 1371.61H213.137M142.069 1442.68H213.137M213.137 21.3203V92.3883M213.137 21.3203H284.205M213.137 92.3883V163.456M213.137 92.3883H284.205M213.137 163.456V234.524M213.137 163.456H284.205M213.137 234.524V305.592M213.137 234.524H284.205M213.137 305.592V376.66M213.137 305.592H284.205M213.137 376.66V447.728M213.137 376.66H284.205M213.137 447.728V518.796M213.137 447.728H284.205M213.137 518.796V589.864M213.137 518.796H284.205M213.137 589.864V660.932M213.137 589.864H284.205M213.137 660.932V732M213.137 660.932H284.205M213.137 732V803.068M213.137 732H284.205M213.137 803.068V874.136M213.137 803.068H284.205M213.137 874.136V945.204M213.137 874.136H284.205M213.137 945.204V1016.27M213.137 945.204H284.205M213.137 1016.27V1087.34M213.137 1016.27H284.205M213.137 1087.34V1158.41M213.137 1087.34H284.205M213.137 1158.41V1229.48M213.137 1158.41H284.205M213.137 1229.48V1300.54M213.137 1229.48H284.205M213.137 1300.54V1371.61M213.137 1300.54H284.205M213.137 1371.61V1442.68M213.137 1371.61H284.205M213.137 1442.68H284.205M284.205 21.3203V92.3883M284.205 21.3203H355.273M284.205 92.3883V163.456M284.205 92.3883H355.273M284.205 163.456V234.524M284.205 163.456H355.273M284.205 234.524V305.592M284.205 234.524H355.273M284.205 305.592V376.66M284.205 305.592H355.273M284.205 376.66V447.728M284.205 376.66H355.273M284.205 447.728V518.796M284.205 447.728H355.273M284.205 518.796V589.864M284.205 518.796H355.273M284.205 589.864V660.932M284.205 589.864H355.273M284.205 660.932V732M284.205 660.932H355.273M284.205 732V803.068M284.205 732H355.273M284.205 803.068V874.136M284.205 803.068H355.273M284.205 874.136V945.204M284.205 874.136H355.273M284.205 945.204V1016.27M284.205 945.204H355.273M284.205 1016.27V1087.34M284.205 1016.27H355.273M284.205 1087.34V1158.41M284.205 1087.34H355.273M284.205 1158.41V1229.48M284.205 1158.41H355.273M284.205 1229.48V1300.54M284.205 1229.48H355.273M284.205 1300.54V1371.61M284.205 1300.54H355.273M284.205 1371.61V1442.68M284.205 1371.61H355.273M284.205 1442.68H355.273M355.273 21.3203V92.3883M355.273 21.3203H426.341M355.273 92.3883V163.456M355.273 92.3883H426.341M355.273 163.456V234.524M355.273 163.456H426.341M355.273 234.524V305.592M355.273 234.524H426.341M355.273 305.592V376.66M355.273 305.592H426.341M355.273 376.66V447.728M355.273 376.66H426.341M355.273 447.728V518.796M355.273 447.728H426.341M355.273 518.796V589.864M355.273 518.796H426.341M355.273 589.864V660.932M355.273 589.864H426.341M355.273 660.932V732M355.273 660.932H426.341M355.273 732V803.068M355.273 732H426.341M355.273 803.068V874.136M355.273 803.068H426.341M355.273 874.136V945.204M355.273 874.136H426.341M355.273 945.204V1016.27M355.273 945.204H426.341M355.273 1016.27V1087.34M355.273 1016.27H426.341M355.273 1087.34V1158.41M355.273 1087.34H426.341M355.273 1158.41V1229.48M355.273 1158.41H426.341M355.273 1229.48V1300.54M355.273 1229.48H426.341M355.273 1300.54V1371.61M355.273 1300.54H426.341M355.273 1371.61V1442.68M355.273 1371.61H426.341M355.273 1442.68H426.341M426.341 21.3203V92.3883M426.341 21.3203H497.409M426.341 92.3883V163.456M426.341 92.3883H497.409M426.341 163.456V234.524M426.341 163.456H497.409M426.341 234.524V305.592M426.341 234.524H497.409M426.341 305.592V376.66M426.341 305.592H497.409M426.341 376.66V447.728M426.341 376.66H497.409M426.341 447.728V518.796M426.341 447.728H497.409M426.341 518.796V589.864M426.341 518.796H497.409M426.341 589.864V660.932M426.341 589.864H497.409M426.341 660.932V732M426.341 660.932H497.409M426.341 732V803.068M426.341 732H497.409M426.341 803.068V874.136M426.341 803.068H497.409M426.341 874.136V945.204M426.341 874.136H497.409M426.341 945.204V1016.27M426.341 945.204H497.409M426.341 1016.27V1087.34M426.341 1016.27H497.409M426.341 1087.34V1158.41M426.341 1087.34H497.409M426.341 1158.41V1229.48M426.341 1158.41H497.409M426.341 1229.48V1300.54M426.341 1229.48H497.409M426.341 1300.54V1371.61M426.341 1300.54H497.409M426.341 1371.61V1442.68M426.341 1371.61H497.409M426.341 1442.68H497.409M497.409 21.3203V92.3883M497.409 21.3203H568.477M497.409 92.3883V163.456M497.409 92.3883H568.477M497.409 163.456V234.524M497.409 163.456H568.477M497.409 234.524V305.592M497.409 234.524H568.477M497.409 305.592V376.66M497.409 305.592H568.477M497.409 376.66V447.728M497.409 376.66H568.477M497.409 447.728V518.796M497.409 447.728H568.477M497.409 518.796V589.864M497.409 518.796H568.477M497.409 589.864V660.932M497.409 589.864H568.477M497.409 660.932V732M497.409 660.932H568.477M497.409 732V803.068M497.409 732H568.477M497.409 803.068V874.136M497.409 803.068H568.477M497.409 874.136V945.204M497.409 874.136H568.477M497.409 945.204V1016.27M497.409 945.204H568.477M497.409 1016.27V1087.34M497.409 1016.27H568.477M497.409 1087.34V1158.41M497.409 1087.34H568.477M497.409 1158.41V1229.48M497.409 1158.41H568.477M497.409 1229.48V1300.54M497.409 1229.48H568.477M497.409 1300.54V1371.61M497.409 1300.54H568.477M497.409 1371.61V1442.68M497.409 1371.61H568.477M497.409 1442.68H568.477M568.477 21.3203V92.3883M568.477 21.3203H639.545M568.477 92.3883V163.456M568.477 92.3883H639.545M568.477 163.456V234.524M568.477 163.456H639.545M568.477 234.524V305.592M568.477 234.524H639.545M568.477 305.592V376.66M568.477 305.592H639.545M568.477 376.66V447.728M568.477 376.66H639.545M568.477 447.728V518.796M568.477 447.728H639.545M568.477 518.796V589.864M568.477 518.796H639.545M568.477 589.864V660.932M568.477 589.864H639.545M568.477 660.932V732M568.477 660.932H639.545M568.477 732V803.068M568.477 732H639.545M568.477 803.068V874.136M568.477 803.068H639.545M568.477 874.136V945.204M568.477 874.136H639.545M568.477 945.204V1016.27M568.477 945.204H639.545M568.477 1016.27V1087.34M568.477 1016.27H639.545M568.477 1087.34V1158.41M568.477 1087.34H639.545M568.477 1158.41V1229.48M568.477 1158.41H639.545M568.477 1229.48V1300.54M568.477 1229.48H639.545M568.477 1300.54V1371.61M568.477 1300.54H639.545M568.477 1371.61V1442.68M568.477 1371.61H639.545M568.477 1442.68H639.545M639.545 21.3203V92.3883M639.545 21.3203H710.613M639.545 92.3883V163.456M639.545 92.3883H710.613M639.545 163.456V234.524M639.545 163.456H710.613M639.545 234.524V305.592M639.545 234.524H710.613M639.545 305.592V376.66M639.545 305.592H710.613M639.545 376.66V447.728M639.545 376.66H710.613M639.545 447.728V518.796M639.545 447.728H710.613M639.545 518.796V589.864M639.545 518.796H710.613M639.545 589.864V660.932M639.545 589.864H710.613M639.545 660.932V732M639.545 660.932H710.613M639.545 732V803.068M639.545 732H710.613M639.545 803.068V874.136M639.545 803.068H710.613M639.545 874.136V945.204M639.545 874.136H710.613M639.545 945.204V1016.27M639.545 945.204H710.613M639.545 1016.27V1087.34M639.545 1016.27H710.613M639.545 1087.34V1158.41M639.545 1087.34H710.613M639.545 1158.41V1229.48M639.545 1158.41H710.613M639.545 1229.48V1300.54M639.545 1229.48H710.613M639.545 1300.54V1371.61M639.545 1300.54H710.613M639.545 1371.61V1442.68M639.545 1371.61H710.613M639.545 1442.68H710.613M710.613 21.3203V92.3883M710.613 21.3203H781.681M710.613 92.3883V163.456M710.613 92.3883H781.681M710.613 163.456V234.524M710.613 163.456H781.681M710.613 234.524V305.592M710.613 234.524H781.681M710.613 305.592V376.66M710.613 305.592H781.681M710.613 376.66V447.728M710.613 376.66H781.681M710.613 447.728V518.796M710.613 447.728H781.681M710.613 518.796V589.864M710.613 518.796H781.681M710.613 589.864V660.932M710.613 589.864H781.681M710.613 660.932V732M710.613 660.932H781.681M710.613 732V803.068M710.613 732H781.681M710.613 803.068V874.136M710.613 803.068H781.681M710.613 874.136V945.204M710.613 874.136H781.681M710.613 945.204V1016.27M710.613 945.204H781.681M710.613 1016.27V1087.34M710.613 1016.27H781.681M710.613 1087.34V1158.41M710.613 1087.34H781.681M710.613 1158.41V1229.48M710.613 1158.41H781.681M710.613 1229.48V1300.54M710.613 1229.48H781.681M710.613 1300.54V1371.61M710.613 1300.54H781.681M710.613 1371.61V1442.68M710.613 1371.61H781.681M710.613 1442.68H781.681M781.681 21.3203V92.3883M781.681 21.3203H852.749M781.681 92.3883V163.456M781.681 92.3883H852.749M781.681 163.456V234.524M781.681 163.456H852.749M781.681 234.524V305.592M781.681 234.524H852.749M781.681 305.592V376.66M781.681 305.592H852.749M781.681 376.66V447.728M781.681 376.66H852.749M781.681 447.728V518.796M781.681 447.728H852.749M781.681 518.796V589.864M781.681 518.796H852.749M781.681 589.864V660.932M781.681 589.864H852.749M781.681 660.932V732M781.681 660.932H852.749M781.681 732V803.068M781.681 732H852.749M781.681 803.068V874.136M781.681 803.068H852.749M781.681 874.136V945.204M781.681 874.136H852.749M781.681 945.204V1016.27M781.681 945.204H852.749M781.681 1016.27V1087.34M781.681 1016.27H852.749M781.681 1087.34V1158.41M781.681 1087.34H852.749M781.681 1158.41V1229.48M781.681 1158.41H852.749M781.681 1229.48V1300.54M781.681 1229.48H852.749M781.681 1300.54V1371.61M781.681 1300.54H852.749M781.681 1371.61V1442.68M781.681 1371.61H852.749M781.681 1442.68H852.749M852.749 21.3203V92.3883M852.749 21.3203H923.817M852.749 92.3883V163.456M852.749 92.3883H923.817M852.749 163.456V234.524M852.749 163.456H923.817M852.749 234.524V305.592M852.749 234.524H923.817M852.749 305.592V376.66M852.749 305.592H923.817M852.749 376.66V447.728M852.749 376.66H923.817M852.749 447.728V518.796M852.749 447.728H923.817M852.749 518.796V589.864M852.749 518.796H923.817M852.749 589.864V660.932M852.749 589.864H923.817M852.749 660.932V732M852.749 660.932H923.817M852.749 732V803.068M852.749 732H923.817M852.749 803.068V874.136M852.749 803.068H923.817M852.749 874.136V945.204M852.749 874.136H923.817M852.749 945.204V1016.27M852.749 945.204H923.817M852.749 1016.27V1087.34M852.749 1016.27H923.817M852.749 1087.34V1158.41M852.749 1087.34H923.817M852.749 1158.41V1229.48M852.749 1158.41H923.817M852.749 1229.48V1300.54M852.749 1229.48H923.817M852.749 1300.54V1371.61M852.749 1300.54H923.817M852.749 1371.61V1442.68M852.749 1371.61H923.817M852.749 1442.68H923.817M923.817 21.3203V92.3883M923.817 21.3203H994.885M923.817 92.3883V163.456M923.817 92.3883H994.885M923.817 163.456V234.524M923.817 163.456H994.885M923.817 234.524V305.592M923.817 234.524H994.885M923.817 305.592V376.66M923.817 305.592H994.885M923.817 376.66V447.728M923.817 376.66H994.885M923.817 447.728V518.796M923.817 447.728H994.885M923.817 518.796V589.864M923.817 518.796H994.885M923.817 589.864V660.932M923.817 589.864H994.885M923.817 660.932V732M923.817 660.932H994.885M923.817 732V803.068M923.817 732H994.885M923.817 803.068V874.136M923.817 803.068H994.885M923.817 874.136V945.204M923.817 874.136H994.885M923.817 945.204V1016.27M923.817 945.204H994.885M923.817 1016.27V1087.34M923.817 1016.27H994.885M923.817 1087.34V1158.41M923.817 1087.34H994.885M923.817 1158.41V1229.48M923.817 1158.41H994.885M923.817 1229.48V1300.54M923.817 1229.48H994.885M923.817 1300.54V1371.61M923.817 1300.54H994.885M923.817 1371.61V1442.68M923.817 1371.61H994.885M923.817 1442.68H994.885M994.885 21.3203V92.3883M994.885 21.3203H1065.95M994.885 92.3883V163.456M994.885 92.3883H1065.95M994.885 163.456V234.524M994.885 163.456H1065.95M994.885 234.524V305.592M994.885 234.524H1065.95M994.885 305.592V376.66M994.885 305.592H1065.95M994.885 376.66V447.728M994.885 376.66H1065.95M994.885 447.728V518.796M994.885 447.728H1065.95M994.885 518.796V589.864M994.885 518.796H1065.95M994.885 589.864V660.932M994.885 589.864H1065.95M994.885 660.932V732M994.885 660.932H1065.95M994.885 732V803.068M994.885 732H1065.95M994.885 803.068V874.136M994.885 803.068H1065.95M994.885 874.136V945.204M994.885 874.136H1065.95M994.885 945.204V1016.27M994.885 945.204H1065.95M994.885 1016.27V1087.34M994.885 1016.27H1065.95M994.885 1087.34V1158.41M994.885 1087.34H1065.95M994.885 1158.41V1229.48M994.885 1158.41H1065.95M994.885 1229.48V1300.54M994.885 1229.48H1065.95M994.885 1300.54V1371.61M994.885 1300.54H1065.95M994.885 1371.61V1442.68M994.885 1371.61H1065.95M994.885 1442.68H1065.95M1065.95 21.3203V92.3883M1065.95 21.3203H1137.02M1065.95 92.3883V163.456M1065.95 92.3883H1137.02M1065.95 163.456V234.524M1065.95 163.456H1137.02M1065.95 234.524V305.592M1065.95 234.524H1137.02M1065.95 305.592V376.66M1065.95 305.592H1137.02M1065.95 376.66V447.728M1065.95 376.66H1137.02M1065.95 447.728V518.796M1065.95 447.728H1137.02M1065.95 518.796V589.864M1065.95 518.796H1137.02M1065.95 589.864V660.932M1065.95 589.864H1137.02M1065.95 660.932V732M1065.95 660.932H1137.02M1065.95 732V803.068M1065.95 732H1137.02M1065.95 803.068V874.136M1065.95 803.068H1137.02M1065.95 874.136V945.204M1065.95 874.136H1137.02M1065.95 945.204V1016.27M1065.95 945.204H1137.02M1065.95 1016.27V1087.34M1065.95 1016.27H1137.02M1065.95 1087.34V1158.41M1065.95 1087.34H1137.02M1065.95 1158.41V1229.48M1065.95 1158.41H1137.02M1065.95 1229.48V1300.54M1065.95 1229.48H1137.02M1065.95 1300.54V1371.61M1065.95 1300.54H1137.02M1065.95 1371.61V1442.68M1065.95 1371.61H1137.02M1065.95 1442.68H1137.02M1137.02 21.3203V92.3883M1137.02 21.3203H1208.09M1137.02 92.3883V163.456M1137.02 92.3883H1208.09M1137.02 163.456V234.524M1137.02 163.456H1208.09M1137.02 234.524V305.592M1137.02 234.524H1208.09M1137.02 305.592V376.66M1137.02 305.592H1208.09M1137.02 376.66V447.728M1137.02 376.66H1208.09M1137.02 447.728V518.796M1137.02 447.728H1208.09M1137.02 518.796V589.864M1137.02 518.796H1208.09M1137.02 589.864V660.932M1137.02 589.864H1208.09M1137.02 660.932V732M1137.02 660.932H1208.09M1137.02 732V803.068M1137.02 732H1208.09M1137.02 803.068V874.136M1137.02 803.068H1208.09M1137.02 874.136V945.204M1137.02 874.136H1208.09M1137.02 945.204V1016.27M1137.02 945.204H1208.09M1137.02 1016.27V1087.34M1137.02 1016.27H1208.09M1137.02 1087.34V1158.41M1137.02 1087.34H1208.09M1137.02 1158.41V1229.48M1137.02 1158.41H1208.09M1137.02 1229.48V1300.54M1137.02 1229.48H1208.09M1137.02 1300.54V1371.61M1137.02 1300.54H1208.09M1137.02 1371.61V1442.68M1137.02 1371.61H1208.09M1137.02 1442.68H1208.09M1208.09 21.3203V92.3883M1208.09 21.3203H1279.16M1208.09 92.3883V163.456M1208.09 92.3883H1279.16M1208.09 163.456V234.524M1208.09 163.456H1279.16M1208.09 234.524V305.592M1208.09 234.524H1279.16M1208.09 305.592V376.66M1208.09 305.592H1279.16M1208.09 376.66V447.728M1208.09 376.66H1279.16M1208.09 447.728V518.796M1208.09 447.728H1279.16M1208.09 518.796V589.864M1208.09 518.796H1279.16M1208.09 589.864V660.932M1208.09 589.864H1279.16M1208.09 660.932V732M1208.09 660.932H1279.16M1208.09 732V803.068M1208.09 732H1279.16M1208.09 803.068V874.136M1208.09 803.068H1279.16M1208.09 874.136V945.204M1208.09 874.136H1279.16M1208.09 945.204V1016.27M1208.09 945.204H1279.16M1208.09 1016.27V1087.34M1208.09 1016.27H1279.16M1208.09 1087.34V1158.41M1208.09 1087.34H1279.16M1208.09 1158.41V1229.48M1208.09 1158.41H1279.16M1208.09 1229.48V1300.54M1208.09 1229.48H1279.16M1208.09 1300.54V1371.61M1208.09 1300.54H1279.16M1208.09 1371.61V1442.68M1208.09 1371.61H1279.16M1208.09 1442.68H1279.16M1279.16 21.3203V92.3883M1279.16 21.3203H1350.22M1279.16 92.3883V163.456M1279.16 92.3883H1350.22M1279.16 163.456V234.524M1279.16 163.456H1350.22M1279.16 234.524V305.592M1279.16 234.524H1350.22M1279.16 305.592V376.66M1279.16 305.592H1350.22M1279.16 376.66V447.728M1279.16 376.66H1350.22M1279.16 447.728V518.796M1279.16 447.728H1350.22M1279.16 518.796V589.864M1279.16 518.796H1350.22M1279.16 589.864V660.932M1279.16 589.864H1350.22M1279.16 660.932V732M1279.16 660.932H1350.22M1279.16 732V803.068M1279.16 732H1350.22M1279.16 803.068V874.136M1279.16 803.068H1350.22M1279.16 874.136V945.204M1279.16 874.136H1350.22M1279.16 945.204V1016.27M1279.16 945.204H1350.22M1279.16 1016.27V1087.34M1279.16 1016.27H1350.22M1279.16 1087.34V1158.41M1279.16 1087.34H1350.22M1279.16 1158.41V1229.48M1279.16 1158.41H1350.22M1279.16 1229.48V1300.54M1279.16 1229.48H1350.22M1279.16 1300.54V1371.61M1279.16 1300.54H1350.22M1279.16 1371.61V1442.68M1279.16 1371.61H1350.22M1279.16 1442.68H1350.22M1350.22 21.3203V92.3883M1350.22 21.3203H1421.29M1350.22 92.3883V163.456M1350.22 92.3883H1421.29M1350.22 163.456V234.524M1350.22 163.456H1421.29M1350.22 234.524V305.592M1350.22 234.524H1421.29M1350.22 305.592V376.66M1350.22 305.592H1421.29M1350.22 376.66V447.728M1350.22 376.66H1421.29M1350.22 447.728V518.796M1350.22 447.728H1421.29M1350.22 518.796V589.864M1350.22 518.796H1421.29M1350.22 589.864V660.932M1350.22 589.864H1421.29M1350.22 660.932V732M1350.22 660.932H1421.29M1350.22 732V803.068M1350.22 732H1421.29M1350.22 803.068V874.136M1350.22 803.068H1421.29M1350.22 874.136V945.204M1350.22 874.136H1421.29M1350.22 945.204V1016.27M1350.22 945.204H1421.29M1350.22 1016.27V1087.34M1350.22 1016.27H1421.29M1350.22 1087.34V1158.41M1350.22 1087.34H1421.29M1350.22 1158.41V1229.48M1350.22 1158.41H1421.29M1350.22 1229.48V1300.54M1350.22 1229.48H1421.29M1350.22 1300.54V1371.61M1350.22 1300.54H1421.29M1350.22 1371.61V1442.68M1350.22 1371.61H1421.29M1350.22 1442.68H1421.29M1421.29 21.3203V92.3883M1421.29 21.3203H1492.36M1421.29 92.3883V163.456M1421.29 92.3883H1492.36M1421.29 163.456V234.524M1421.29 163.456H1492.36M1421.29 234.524V305.592M1421.29 234.524H1492.36M1421.29 305.592V376.66M1421.29 305.592H1492.36M1421.29 376.66V447.728M1421.29 376.66H1492.36M1421.29 447.728V518.796M1421.29 447.728H1492.36M1421.29 518.796V589.864M1421.29 518.796H1492.36M1421.29 589.864V660.932M1421.29 589.864H1492.36M1421.29 660.932V732M1421.29 660.932H1492.36M1421.29 732V803.068M1421.29 732H1492.36M1421.29 803.068V874.136M1421.29 803.068H1492.36M1421.29 874.136V945.204M1421.29 874.136H1492.36M1421.29 945.204V1016.27M1421.29 945.204H1492.36M1421.29 1016.27V1087.34M1421.29 1016.27H1492.36M1421.29 1087.34V1158.41M1421.29 1087.34H1492.36M1421.29 1158.41V1229.48M1421.29 1158.41H1492.36M1421.29 1229.48V1300.54M1421.29 1229.48H1492.36M1421.29 1300.54V1371.61M1421.29 1300.54H1492.36M1421.29 1371.61V1442.68M1421.29 1371.61H1492.36M1421.29 1442.68H1492.36M1492.36 21.3203V92.3883M1492.36 21.3203H1563.43M1492.36 92.3883V163.456M1492.36 92.3883H1563.43M1492.36 163.456V234.524M1492.36 163.456H1563.43M1492.36 234.524V305.592M1492.36 234.524H1563.43M1492.36 305.592V376.66M1492.36 305.592H1563.43M1492.36 376.66V447.728M1492.36 376.66H1563.43M1492.36 447.728V518.796M1492.36 447.728H1563.43M1492.36 518.796V589.864M1492.36 518.796H1563.43M1492.36 589.864V660.932M1492.36 589.864H1563.43M1492.36 660.932V732M1492.36 660.932H1563.43M1492.36 732V803.068M1492.36 732H1563.43M1492.36 803.068V874.136M1492.36 803.068H1563.43M1492.36 874.136V945.204M1492.36 874.136H1563.43M1492.36 945.204V1016.27M1492.36 945.204H1563.43M1492.36 1016.27V1087.34M1492.36 1016.27H1563.43M1492.36 1087.34V1158.41M1492.36 1087.34H1563.43M1492.36 1158.41V1229.48M1492.36 1158.41H1563.43M1492.36 1229.48V1300.54M1492.36 1229.48H1563.43M1492.36 1300.54V1371.61M1492.36 1300.54H1563.43M1492.36 1371.61V1442.68M1492.36 1371.61H1563.43M1492.36 1442.68H1563.43M1563.43 21.3203V92.3883M1563.43 21.3203H1634.5M1563.43 92.3883V163.456M1563.43 92.3883H1634.5M1563.43 163.456V234.524M1563.43 163.456H1634.5M1563.43 234.524V305.592M1563.43 234.524H1634.5M1563.43 305.592V376.66M1563.43 305.592H1634.5M1563.43 376.66V447.728M1563.43 376.66H1634.5M1563.43 447.728V518.796M1563.43 447.728H1634.5M1563.43 518.796V589.864M1563.43 518.796H1634.5M1563.43 589.864V660.932M1563.43 589.864H1634.5M1563.43 660.932V732M1563.43 660.932H1634.5M1563.43 732V803.068M1563.43 732H1634.5M1563.43 803.068V874.136M1563.43 803.068H1634.5M1563.43 874.136V945.204M1563.43 874.136H1634.5M1563.43 945.204V1016.27M1563.43 945.204H1634.5M1563.43 1016.27V1087.34M1563.43 1016.27H1634.5M1563.43 1087.34V1158.41M1563.43 1087.34H1634.5M1563.43 1158.41V1229.48M1563.43 1158.41H1634.5M1563.43 1229.48V1300.54M1563.43 1229.48H1634.5M1563.43 1300.54V1371.61M1563.43 1300.54H1634.5M1563.43 1371.61V1442.68M1563.43 1371.61H1634.5M1563.43 1442.68H1634.5M1634.5 21.3203V92.3883M1634.5 21.3203H1705.56M1634.5 92.3883V163.456M1634.5 92.3883H1705.56M1634.5 163.456V234.524M1634.5 163.456H1705.56M1634.5 234.524V305.592M1634.5 234.524H1705.56M1634.5 305.592V376.66M1634.5 305.592H1705.56M1634.5 376.66V447.728M1634.5 376.66H1705.56M1634.5 447.728V518.796M1634.5 447.728H1705.56M1634.5 518.796V589.864M1634.5 518.796H1705.56M1634.5 589.864V660.932M1634.5 589.864H1705.56M1634.5 660.932V732M1634.5 660.932H1705.56M1634.5 732V803.068M1634.5 732H1705.56M1634.5 803.068V874.136M1634.5 803.068H1705.56M1634.5 874.136V945.204M1634.5 874.136H1705.56M1634.5 945.204V1016.27M1634.5 945.204H1705.56M1634.5 1016.27V1087.34M1634.5 1016.27H1705.56M1634.5 1087.34V1158.41M1634.5 1087.34H1705.56M1634.5 1158.41V1229.48M1634.5 1158.41H1705.56M1634.5 1229.48V1300.54M1634.5 1229.48H1705.56M1634.5 1300.54V1371.61M1634.5 1300.54H1705.56M1634.5 1371.61V1442.68M1634.5 1371.61H1705.56M1634.5 1442.68H1705.56M1705.56 21.3203V92.3883M1705.56 21.3203H1776.63M1705.56 92.3883V163.456M1705.56 92.3883H1776.63M1705.56 163.456V234.524M1705.56 163.456H1776.63M1705.56 234.524V305.592M1705.56 234.524H1776.63M1705.56 305.592V376.66M1705.56 305.592H1776.63M1705.56 376.66V447.728M1705.56 376.66H1776.63M1705.56 447.728V518.796M1705.56 447.728H1776.63M1705.56 518.796V589.864M1705.56 518.796H1776.63M1705.56 589.864V660.932M1705.56 589.864H1776.63M1705.56 660.932V732M1705.56 660.932H1776.63M1705.56 732V803.068M1705.56 732H1776.63M1705.56 803.068V874.136M1705.56 803.068H1776.63M1705.56 874.136V945.204M1705.56 874.136H1776.63M1705.56 945.204V1016.27M1705.56 945.204H1776.63M1705.56 1016.27V1087.34M1705.56 1016.27H1776.63M1705.56 1087.34V1158.41M1705.56 1087.34H1776.63M1705.56 1158.41V1229.48M1705.56 1158.41H1776.63M1705.56 1229.48V1300.54M1705.56 1229.48H1776.63M1705.56 1300.54V1371.61M1705.56 1300.54H1776.63M1705.56 1371.61V1442.68M1705.56 1371.61H1776.63M1705.56 1442.68H1776.63M1776.63 21.3203V92.3883M1776.63 21.3203H1847.7M1776.63 92.3883V163.456M1776.63 92.3883H1847.7M1776.63 163.456V234.524M1776.63 163.456H1847.7M1776.63 234.524V305.592M1776.63 234.524H1847.7M1776.63 305.592V376.66M1776.63 305.592H1847.7M1776.63 376.66V447.728M1776.63 376.66H1847.7M1776.63 447.728V518.796M1776.63 447.728H1847.7M1776.63 518.796V589.864M1776.63 518.796H1847.7M1776.63 589.864V660.932M1776.63 589.864H1847.7M1776.63 660.932V732M1776.63 660.932H1847.7M1776.63 732V803.068M1776.63 732H1847.7M1776.63 803.068V874.136M1776.63 803.068H1847.7M1776.63 874.136V945.204M1776.63 874.136H1847.7M1776.63 945.204V1016.27M1776.63 945.204H1847.7M1776.63 1016.27V1087.34M1776.63 1016.27H1847.7M1776.63 1087.34V1158.41M1776.63 1087.34H1847.7M1776.63 1158.41V1229.48M1776.63 1158.41H1847.7M1776.63 1229.48V1300.54M1776.63 1229.48H1847.7M1776.63 1300.54V1371.61M1776.63 1300.54H1847.7M1776.63 1371.61V1442.68M1776.63 1371.61H1847.7M1776.63 1442.68H1847.7M1847.7 21.3203V92.3883M1847.7 21.3203H1918.77M1847.7 92.3883V163.456M1847.7 92.3883H1918.77M1847.7 163.456V234.524M1847.7 163.456H1918.77M1847.7 234.524V305.592M1847.7 234.524H1918.77M1847.7 305.592V376.66M1847.7 305.592H1918.77M1847.7 376.66V447.728M1847.7 376.66H1918.77M1847.7 447.728V518.796M1847.7 447.728H1918.77M1847.7 518.796V589.864M1847.7 518.796H1918.77M1847.7 589.864V660.932M1847.7 589.864H1918.77M1847.7 660.932V732M1847.7 660.932H1918.77M1847.7 732V803.068M1847.7 732H1918.77M1847.7 803.068V874.136M1847.7 803.068H1918.77M1847.7 874.136V945.204M1847.7 874.136H1918.77M1847.7 945.204V1016.27M1847.7 945.204H1918.77M1847.7 1016.27V1087.34M1847.7 1016.27H1918.77M1847.7 1087.34V1158.41M1847.7 1087.34H1918.77M1847.7 1158.41V1229.48M1847.7 1158.41H1918.77M1847.7 1229.48V1300.54M1847.7 1229.48H1918.77M1847.7 1300.54V1371.61M1847.7 1300.54H1918.77M1847.7 1371.61V1442.68M1847.7 1371.61H1918.77M1847.7 1442.68H1918.77M1918.77 21.3203V92.3883M1918.77 21.3203H1989.84M1918.77 92.3883V163.456M1918.77 92.3883H1989.84M1918.77 163.456V234.524M1918.77 163.456H1989.84M1918.77 234.524V305.592M1918.77 234.524H1989.84M1918.77 305.592V376.66M1918.77 305.592H1989.84M1918.77 376.66V447.728M1918.77 376.66H1989.84M1918.77 447.728V518.796M1918.77 447.728H1989.84M1918.77 518.796V589.864M1918.77 518.796H1989.84M1918.77 589.864V660.932M1918.77 589.864H1989.84M1918.77 660.932V732M1918.77 660.932H1989.84M1918.77 732V803.068M1918.77 732H1989.84M1918.77 803.068V874.136M1918.77 803.068H1989.84M1918.77 874.136V945.204M1918.77 874.136H1989.84M1918.77 945.204V1016.27M1918.77 945.204H1989.84M1918.77 1016.27V1087.34M1918.77 1016.27H1989.84M1918.77 1087.34V1158.41M1918.77 1087.34H1989.84M1918.77 1158.41V1229.48M1918.77 1158.41H1989.84M1918.77 1229.48V1300.54M1918.77 1229.48H1989.84M1918.77 1300.54V1371.61M1918.77 1300.54H1989.84M1918.77 1371.61V1442.68M1918.77 1371.61H1989.84M1918.77 1442.68H1989.84M1989.84 21.3203V92.3883M1989.84 21.3203H2060.9M1989.84 92.3883V163.456M1989.84 92.3883H2060.9M1989.84 163.456V234.524M1989.84 163.456H2060.9M1989.84 234.524V305.592M1989.84 234.524H2060.9M1989.84 305.592V376.66M1989.84 305.592H2060.9M1989.84 376.66V447.728M1989.84 376.66H2060.9M1989.84 447.728V518.796M1989.84 447.728H2060.9M1989.84 518.796V589.864M1989.84 518.796H2060.9M1989.84 589.864V660.932M1989.84 589.864H2060.9M1989.84 660.932V732M1989.84 660.932H2060.9M1989.84 732V803.068M1989.84 732H2060.9M1989.84 803.068V874.136M1989.84 803.068H2060.9M1989.84 874.136V945.204M1989.84 874.136H2060.9M1989.84 945.204V1016.27M1989.84 945.204H2060.9M1989.84 1016.27V1087.34M1989.84 1016.27H2060.9M1989.84 1087.34V1158.41M1989.84 1087.34H2060.9M1989.84 1158.41V1229.48M1989.84 1158.41H2060.9M1989.84 1229.48V1300.54M1989.84 1229.48H2060.9M1989.84 1300.54V1371.61M1989.84 1300.54H2060.9M1989.84 1371.61V1442.68M1989.84 1371.61H2060.9M1989.84 1442.68H2060.9M2060.9 21.3203V92.3883M2060.9 21.3203H2131.97M2060.9 92.3883V163.456M2060.9 92.3883H2131.97M2060.9 163.456V234.524M2060.9 163.456H2131.97M2060.9 234.524V305.592M2060.9 234.524H2131.97M2060.9 305.592V376.66M2060.9 305.592H2131.97M2060.9 376.66V447.728M2060.9 376.66H2131.97M2060.9 447.728V518.796M2060.9 447.728H2131.97M2060.9 518.796V589.864M2060.9 518.796H2131.97M2060.9 589.864V660.932M2060.9 589.864H2131.97M2060.9 660.932V732M2060.9 660.932H2131.97M2060.9 732V803.068M2060.9 732H2131.97M2060.9 803.068V874.136M2060.9 803.068H2131.97M2060.9 874.136V945.204M2060.9 874.136H2131.97M2060.9 945.204V1016.27M2060.9 945.204H2131.97M2060.9 1016.27V1087.34M2060.9 1016.27H2131.97M2060.9 1087.34V1158.41M2060.9 1087.34H2131.97M2060.9 1158.41V1229.48M2060.9 1158.41H2131.97M2060.9 1229.48V1300.54M2060.9 1229.48H2131.97M2060.9 1300.54V1371.61M2060.9 1300.54H2131.97M2060.9 1371.61V1442.68M2060.9 1371.61H2131.97M2060.9 1442.68H2131.97M2131.97 21.3203V92.3883M2131.97 21.3203H2203.04M2131.97 92.3883V163.456M2131.97 92.3883H2203.04M2131.97 163.456V234.524M2131.97 163.456H2203.04M2131.97 234.524V305.592M2131.97 234.524H2203.04M2131.97 305.592V376.66M2131.97 305.592H2203.04M2131.97 376.66V447.728M2131.97 376.66H2203.04M2131.97 447.728V518.796M2131.97 447.728H2203.04M2131.97 518.796V589.864M2131.97 518.796H2203.04M2131.97 589.864V660.932M2131.97 589.864H2203.04M2131.97 660.932V732M2131.97 660.932H2203.04M2131.97 732V803.068M2131.97 732H2203.04M2131.97 803.068V874.136M2131.97 803.068H2203.04M2131.97 874.136V945.204M2131.97 874.136H2203.04M2131.97 945.204V1016.27M2131.97 945.204H2203.04M2131.97 1016.27V1087.34M2131.97 1016.27H2203.04M2131.97 1087.34V1158.41M2131.97 1087.34H2203.04M2131.97 1158.41V1229.48M2131.97 1158.41H2203.04M2131.97 1229.48V1300.54M2131.97 1229.48H2203.04M2131.97 1300.54V1371.61M2131.97 1300.54H2203.04M2131.97 1371.61V1442.68M2131.97 1371.61H2203.04M2131.97 1442.68H2203.04M2203.04 21.3203V92.3883M2203.04 21.3203H2274.11M2203.04 92.3883V163.456M2203.04 92.3883H2274.11M2203.04 163.456V234.524M2203.04 163.456H2274.11M2203.04 234.524V305.592M2203.04 234.524H2274.11M2203.04 305.592V376.66M2203.04 305.592H2274.11M2203.04 376.66V447.728M2203.04 376.66H2274.11M2203.04 447.728V518.796M2203.04 447.728H2274.11M2203.04 518.796V589.864M2203.04 518.796H2274.11M2203.04 589.864V660.932M2203.04 589.864H2274.11M2203.04 660.932V732M2203.04 660.932H2274.11M2203.04 732V803.068M2203.04 732H2274.11M2203.04 803.068V874.136M2203.04 803.068H2274.11M2203.04 874.136V945.204M2203.04 874.136H2274.11M2203.04 945.204V1016.27M2203.04 945.204H2274.11M2203.04 1016.27V1087.34M2203.04 1016.27H2274.11M2203.04 1087.34V1158.41M2203.04 1087.34H2274.11M2203.04 1158.41V1229.48M2203.04 1158.41H2274.11M2203.04 1229.48V1300.54M2203.04 1229.48H2274.11M2203.04 1300.54V1371.61M2203.04 1300.54H2274.11M2203.04 1371.61V1442.68M2203.04 1371.61H2274.11M2203.04 1442.68H2274.11M2274.11 21.3203V92.3883M2274.11 21.3203H2345.18M2274.11 92.3883V163.456M2274.11 92.3883H2345.18M2274.11 163.456V234.524M2274.11 163.456H2345.18M2274.11 234.524V305.592M2274.11 234.524H2345.18M2274.11 305.592V376.66M2274.11 305.592H2345.18M2274.11 376.66V447.728M2274.11 376.66H2345.18M2274.11 447.728V518.796M2274.11 447.728H2345.18M2274.11 518.796V589.864M2274.11 518.796H2345.18M2274.11 589.864V660.932M2274.11 589.864H2345.18M2274.11 660.932V732M2274.11 660.932H2345.18M2274.11 732V803.068M2274.11 732H2345.18M2274.11 803.068V874.136M2274.11 803.068H2345.18M2274.11 874.136V945.204M2274.11 874.136H2345.18M2274.11 945.204V1016.27M2274.11 945.204H2345.18M2274.11 1016.27V1087.34M2274.11 1016.27H2345.18M2274.11 1087.34V1158.41M2274.11 1087.34H2345.18M2274.11 1158.41V1229.48M2274.11 1158.41H2345.18M2274.11 1229.48V1300.54M2274.11 1229.48H2345.18M2274.11 1300.54V1371.61M2274.11 1300.54H2345.18M2274.11 1371.61V1442.68M2274.11 1371.61H2345.18M2274.11 1442.68H2345.18M2345.18 21.3203V92.3883M2345.18 21.3203H2416.24M2345.18 92.3883V163.456M2345.18 92.3883H2416.24M2345.18 163.456V234.524M2345.18 163.456H2416.24M2345.18 234.524V305.592M2345.18 234.524H2416.24M2345.18 305.592V376.66M2345.18 305.592H2416.24M2345.18 376.66V447.728M2345.18 376.66H2416.24M2345.18 447.728V518.796M2345.18 447.728H2416.24M2345.18 518.796V589.864M2345.18 518.796H2416.24M2345.18 589.864V660.932M2345.18 589.864H2416.24M2345.18 660.932V732M2345.18 660.932H2416.24M2345.18 732V803.068M2345.18 732H2416.24M2345.18 803.068V874.136M2345.18 803.068H2416.24M2345.18 874.136V945.204M2345.18 874.136H2416.24M2345.18 945.204V1016.27M2345.18 945.204H2416.24M2345.18 1016.27V1087.34M2345.18 1016.27H2416.24M2345.18 1087.34V1158.41M2345.18 1087.34H2416.24M2345.18 1158.41V1229.48M2345.18 1158.41H2416.24M2345.18 1229.48V1300.54M2345.18 1229.48H2416.24M2345.18 1300.54V1371.61M2345.18 1300.54H2416.24M2345.18 1371.61V1442.68M2345.18 1371.61H2416.24M2345.18 1442.68H2416.24M2416.24 21.3203V92.3883M2416.24 21.3203H2487.31M2416.24 92.3883V163.456M2416.24 92.3883H2487.31M2416.24 163.456V234.524M2416.24 163.456H2487.31M2416.24 234.524V305.592M2416.24 234.524H2487.31M2416.24 305.592V376.66M2416.24 305.592H2487.31M2416.24 376.66V447.728M2416.24 376.66H2487.31M2416.24 447.728V518.796M2416.24 447.728H2487.31M2416.24 518.796V589.864M2416.24 518.796H2487.31M2416.24 589.864V660.932M2416.24 589.864H2487.31M2416.24 660.932V732M2416.24 660.932H2487.31M2416.24 732V803.068M2416.24 732H2487.31M2416.24 803.068V874.136M2416.24 803.068H2487.31M2416.24 874.136V945.204M2416.24 874.136H2487.31M2416.24 945.204V1016.27M2416.24 945.204H2487.31M2416.24 1016.27V1087.34M2416.24 1016.27H2487.31M2416.24 1087.34V1158.41M2416.24 1087.34H2487.31M2416.24 1158.41V1229.48M2416.24 1158.41H2487.31M2416.24 1229.48V1300.54M2416.24 1229.48H2487.31M2416.24 1300.54V1371.61M2416.24 1300.54H2487.31M2416.24 1371.61V1442.68M2416.24 1371.61H2487.31M2416.24 1442.68H2487.31M2487.31 21.3203V92.3883M2487.31 21.3203H2558.38M2487.31 92.3883V163.456M2487.31 92.3883H2558.38M2487.31 163.456V234.524M2487.31 163.456H2558.38M2487.31 234.524V305.592M2487.31 234.524H2558.38M2487.31 305.592V376.66M2487.31 305.592H2558.38M2487.31 376.66V447.728M2487.31 376.66H2558.38M2487.31 447.728V518.796M2487.31 447.728H2558.38M2487.31 518.796V589.864M2487.31 518.796H2558.38M2487.31 589.864V660.932M2487.31 589.864H2558.38M2487.31 660.932V732M2487.31 660.932H2558.38M2487.31 732V803.068M2487.31 732H2558.38M2487.31 803.068V874.136M2487.31 803.068H2558.38M2487.31 874.136V945.204M2487.31 874.136H2558.38M2487.31 945.204V1016.27M2487.31 945.204H2558.38M2487.31 1016.27V1087.34M2487.31 1016.27H2558.38M2487.31 1087.34V1158.41M2487.31 1087.34H2558.38M2487.31 1158.41V1229.48M2487.31 1158.41H2558.38M2487.31 1229.48V1300.54M2487.31 1229.48H2558.38M2487.31 1300.54V1371.61M2487.31 1300.54H2558.38M2487.31 1371.61V1442.68M2487.31 1371.61H2558.38M2487.31 1442.68H2558.38M2558.38 21.3203V92.3883M2558.38 21.3203H2629.45M2558.38 92.3883V163.456M2558.38 92.3883H2629.45M2558.38 163.456V234.524M2558.38 163.456H2629.45M2558.38 234.524V305.592M2558.38 234.524H2629.45M2558.38 305.592V376.66M2558.38 305.592H2629.45M2558.38 376.66V447.728M2558.38 376.66H2629.45M2558.38 447.728V518.796M2558.38 447.728H2629.45M2558.38 518.796V589.864M2558.38 518.796H2629.45M2558.38 589.864V660.932M2558.38 589.864H2629.45M2558.38 660.932V732M2558.38 660.932H2629.45M2558.38 732V803.068M2558.38 732H2629.45M2558.38 803.068V874.136M2558.38 803.068H2629.45M2558.38 874.136V945.204M2558.38 874.136H2629.45M2558.38 945.204V1016.27M2558.38 945.204H2629.45M2558.38 1016.27V1087.34M2558.38 1016.27H2629.45M2558.38 1087.34V1158.41M2558.38 1087.34H2629.45M2558.38 1158.41V1229.48M2558.38 1158.41H2629.45M2558.38 1229.48V1300.54M2558.38 1229.48H2629.45M2558.38 1300.54V1371.61M2558.38 1300.54H2629.45M2558.38 1371.61V1442.68M2558.38 1371.61H2629.45M2558.38 1442.68H2629.45M2629.45 21.3203V92.3883M2629.45 21.3203H2700.52M2629.45 92.3883V163.456M2629.45 92.3883H2700.52M2629.45 163.456V234.524M2629.45 163.456H2700.52M2629.45 234.524V305.592M2629.45 234.524H2700.52M2629.45 305.592V376.66M2629.45 305.592H2700.52M2629.45 376.66V447.728M2629.45 376.66H2700.52M2629.45 447.728V518.796M2629.45 447.728H2700.52M2629.45 518.796V589.864M2629.45 518.796H2700.52M2629.45 589.864V660.932M2629.45 589.864H2700.52M2629.45 660.932V732M2629.45 660.932H2700.52M2629.45 732V803.068M2629.45 732H2700.52M2629.45 803.068V874.136M2629.45 803.068H2700.52M2629.45 874.136V945.204M2629.45 874.136H2700.52M2629.45 945.204V1016.27M2629.45 945.204H2700.52M2629.45 1016.27V1087.34M2629.45 1016.27H2700.52M2629.45 1087.34V1158.41M2629.45 1087.34H2700.52M2629.45 1158.41V1229.48M2629.45 1158.41H2700.52M2629.45 1229.48V1300.54M2629.45 1229.48H2700.52M2629.45 1300.54V1371.61M2629.45 1300.54H2700.52M2629.45 1371.61V1442.68M2629.45 1371.61H2700.52M2629.45 1442.68H2700.52M2700.52 21.3203V92.3883M2700.52 21.3203H2771.58M2700.52 92.3883V163.456M2700.52 92.3883H2771.58M2700.52 163.456V234.524M2700.52 163.456H2771.58M2700.52 234.524V305.592M2700.52 234.524H2771.58M2700.52 305.592V376.66M2700.52 305.592H2771.58M2700.52 376.66V447.728M2700.52 376.66H2771.58M2700.52 447.728V518.796M2700.52 447.728H2771.58M2700.52 518.796V589.864M2700.52 518.796H2771.58M2700.52 589.864V660.932M2700.52 589.864H2771.58M2700.52 660.932V732M2700.52 660.932H2771.58M2700.52 732V803.068M2700.52 732H2771.58M2700.52 803.068V874.136M2700.52 803.068H2771.58M2700.52 874.136V945.204M2700.52 874.136H2771.58M2700.52 945.204V1016.27M2700.52 945.204H2771.58M2700.52 1016.27V1087.34M2700.52 1016.27H2771.58M2700.52 1087.34V1158.41M2700.52 1087.34H2771.58M2700.52 1158.41V1229.48M2700.52 1158.41H2771.58M2700.52 1229.48V1300.54M2700.52 1229.48H2771.58M2700.52 1300.54V1371.61M2700.52 1300.54H2771.58M2700.52 1371.61V1442.68M2700.52 1371.61H2771.58M2700.52 1442.68H2771.58M2771.58 21.3203V92.3883M2771.58 21.3203H2842.65M2771.58 92.3883V163.456M2771.58 92.3883H2842.65M2771.58 163.456V234.524M2771.58 163.456H2842.65M2771.58 234.524V305.592M2771.58 234.524H2842.65M2771.58 305.592V376.66M2771.58 305.592H2842.65M2771.58 376.66V447.728M2771.58 376.66H2842.65M2771.58 447.728V518.796M2771.58 447.728H2842.65M2771.58 518.796V589.864M2771.58 518.796H2842.65M2771.58 589.864V660.932M2771.58 589.864H2842.65M2771.58 660.932V732M2771.58 660.932H2842.65M2771.58 732V803.068M2771.58 732H2842.65M2771.58 803.068V874.136M2771.58 803.068H2842.65M2771.58 874.136V945.204M2771.58 874.136H2842.65M2771.58 945.204V1016.27M2771.58 945.204H2842.65M2771.58 1016.27V1087.34M2771.58 1016.27H2842.65M2771.58 1087.34V1158.41M2771.58 1087.34H2842.65M2771.58 1158.41V1229.48M2771.58 1158.41H2842.65M2771.58 1229.48V1300.54M2771.58 1229.48H2842.65M2771.58 1300.54V1371.61M2771.58 1300.54H2842.65M2771.58 1371.61V1442.68M2771.58 1371.61H2842.65M2771.58 1442.68H2842.65M2842.65 21.3203V92.3883M2842.65 21.3203H2913.72M2842.65 92.3883V163.456M2842.65 92.3883H2913.72M2842.65 163.456V234.524M2842.65 163.456H2913.72M2842.65 234.524V305.592M2842.65 234.524H2913.72M2842.65 305.592V376.66M2842.65 305.592H2913.72M2842.65 376.66V447.728M2842.65 376.66H2913.72M2842.65 447.728V518.796M2842.65 447.728H2913.72M2842.65 518.796V589.864M2842.65 518.796H2913.72M2842.65 589.864V660.932M2842.65 589.864H2913.72M2842.65 660.932V732M2842.65 660.932H2913.72M2842.65 732V803.068M2842.65 732H2913.72M2842.65 803.068V874.136M2842.65 803.068H2913.72M2842.65 874.136V945.204M2842.65 874.136H2913.72M2842.65 945.204V1016.27M2842.65 945.204H2913.72M2842.65 1016.27V1087.34M2842.65 1016.27H2913.72M2842.65 1087.34V1158.41M2842.65 1087.34H2913.72M2842.65 1158.41V1229.48M2842.65 1158.41H2913.72M2842.65 1229.48V1300.54M2842.65 1229.48H2913.72M2842.65 1300.54V1371.61M2842.65 1300.54H2913.72M2842.65 1371.61V1442.68M2842.65 1371.61H2913.72M2842.65 1442.68H2913.72M2913.72 21.3203V92.3883M2913.72 21.3203H2984.79M2913.72 92.3883V163.456M2913.72 92.3883H2984.79M2913.72 163.456V234.524M2913.72 163.456H2984.79M2913.72 234.524V305.592M2913.72 234.524H2984.79M2913.72 305.592V376.66M2913.72 305.592H2984.79M2913.72 376.66V447.728M2913.72 376.66H2984.79M2913.72 447.728V518.796M2913.72 447.728H2984.79M2913.72 518.796V589.864M2913.72 518.796H2984.79M2913.72 589.864V660.932M2913.72 589.864H2984.79M2913.72 660.932V732M2913.72 660.932H2984.79M2913.72 732V803.068M2913.72 732H2984.79M2913.72 803.068V874.136M2913.72 803.068H2984.79M2913.72 874.136V945.204M2913.72 874.136H2984.79M2913.72 945.204V1016.27M2913.72 945.204H2984.79M2913.72 1016.27V1087.34M2913.72 1016.27H2984.79M2913.72 1087.34V1158.41M2913.72 1087.34H2984.79M2913.72 1158.41V1229.48M2913.72 1158.41H2984.79M2913.72 1229.48V1300.54M2913.72 1229.48H2984.79M2913.72 1300.54V1371.61M2913.72 1300.54H2984.79M2913.72 1371.61V1442.68M2913.72 1371.61H2984.79M2913.72 1442.68H2984.79M2984.79 21.3203V92.3883M2984.79 21.3203H3055.86M2984.79 92.3883V163.456M2984.79 92.3883H3055.86M2984.79 163.456V234.524M2984.79 163.456H3055.86M2984.79 234.524V305.592M2984.79 234.524H3055.86M2984.79 305.592V376.66M2984.79 305.592H3055.86M2984.79 376.66V447.728M2984.79 376.66H3055.86M2984.79 447.728V518.796M2984.79 447.728H3055.86M2984.79 518.796V589.864M2984.79 518.796H3055.86M2984.79 589.864V660.932M2984.79 589.864H3055.86M2984.79 660.932V732M2984.79 660.932H3055.86M2984.79 732V803.068M2984.79 732H3055.86M2984.79 803.068V874.136M2984.79 803.068H3055.86M2984.79 874.136V945.204M2984.79 874.136H3055.86M2984.79 945.204V1016.27M2984.79 945.204H3055.86M2984.79 1016.27V1087.34M2984.79 1016.27H3055.86M2984.79 1087.34V1158.41M2984.79 1087.34H3055.86M2984.79 1158.41V1229.48M2984.79 1158.41H3055.86M2984.79 1229.48V1300.54M2984.79 1229.48H3055.86M2984.79 1300.54V1371.61M2984.79 1300.54H3055.86M2984.79 1371.61V1442.68M2984.79 1371.61H3055.86M2984.79 1442.68H3055.86M3055.86 21.3203V92.3883M3055.86 21.3203H3126.92V92.3883M3055.86 92.3883V163.456M3055.86 92.3883H3126.92M3055.86 163.456V234.524M3055.86 163.456H3126.92M3055.86 234.524V305.592M3055.86 234.524H3126.92M3055.86 305.592V376.66M3055.86 305.592H3126.92M3055.86 376.66V447.728M3055.86 376.66H3126.92M3055.86 447.728V518.796M3055.86 447.728H3126.92M3055.86 518.796V589.864M3055.86 518.796H3126.92M3055.86 589.864V660.932M3055.86 589.864H3126.92M3055.86 660.932V732M3055.86 660.932H3126.92M3055.86 732V803.068M3055.86 732H3126.92M3055.86 803.068V874.136M3055.86 803.068H3126.92M3055.86 874.136V945.204M3055.86 874.136H3126.92M3055.86 945.204V1016.27M3055.86 945.204H3126.92M3055.86 1016.27V1087.34M3055.86 1016.27H3126.92M3055.86 1087.34V1158.41M3055.86 1087.34H3126.92M3055.86 1158.41V1229.48M3055.86 1158.41H3126.92M3055.86 1229.48V1300.54M3055.86 1229.48H3126.92M3055.86 1300.54V1371.61M3055.86 1300.54H3126.92M3055.86 1371.61V1442.68M3055.86 1371.61H3126.92M3055.86 1442.68H3126.92V1371.61M3126.92 92.3883V163.456M3126.92 163.456V234.524M3126.92 234.524V305.592M3126.92 305.592V376.66M3126.92 376.66V447.728M3126.92 447.728V518.796M3126.92 518.796V589.864M3126.92 589.864V660.932M3126.92 660.932V732M3126.92 732V803.068M3126.92 803.068V874.136M3126.92 874.136V945.204M3126.92 945.204V1016.27M3126.92 1016.27V1087.34M3126.92 1087.34V1158.41M3126.92 1158.41V1229.48M3126.92 1229.48V1300.54M3126.92 1300.54V1371.61" stroke="#64748b" stroke-width="0.804612"/>
<path d="M284.207 284.272V326.913M262.887 305.592H305.527" stroke="#64748b" stroke-width="1.60922"/>
<path d="M284.207 852.815V895.456M262.887 874.136H305.527" stroke="#64748b" stroke-width="1.60922"/>
<path d="M284.207 1421.36V1464M262.887 1442.68H305.527" stroke="#64748b" stroke-width="1.60922"/>
<path d="M852.75 284.272V326.913M831.43 305.592H874.07" stroke="#64748b" stroke-width="1.60922"/>
<path d="M852.75 852.815V895.456M831.43 874.136H874.07" stroke="#64748b" stroke-width="1.60922"/>
<path d="M852.75 1421.36V1464M831.43 1442.68H874.07" stroke="#64748b" stroke-width="1.60922"/>
<path d="M1421.29 284.272V326.913M1399.97 305.592H1442.61" stroke="#64748b" stroke-width="1.60922"/>
<path d="M1421.29 852.815V895.456M1399.97 874.136H1442.61" stroke="#64748b" stroke-width="1.60922"/>
<path d="M1421.29 1421.36V1464M1399.97 1442.68H1442.61" stroke="#64748b" stroke-width="1.60922"/>
<path d="M1989.84 284.272V326.913M1968.52 305.592H2011.16" stroke="#64748b" stroke-width="1.60922"/>
<path d="M1989.84 852.815V895.456M1968.52 874.136H2011.16" stroke="#64748b" stroke-width="1.60922"/>
<path d="M1989.84 1421.36V1464M1968.52 1442.68H2011.16" stroke="#64748b" stroke-width="1.60922"/>
<path d="M2558.38 284.272V326.913M2537.06 305.592H2579.7" stroke="#64748b" stroke-width="1.60922"/>
<path d="M2558.38 852.815V895.456M2537.06 874.136H2579.7" stroke="#64748b" stroke-width="1.60922"/>
<path d="M2558.38 1421.36V1464M2537.06 1442.68H2579.7" stroke="#64748b" stroke-width="1.60922"/>
<path d="M3126.93 284.272V326.913M3105.61 305.592H3148.25" stroke="#64748b" stroke-width="1.60922"/>
<path d="M3126.93 852.815V895.456M3105.61 874.136H3148.25" stroke="#64748b" stroke-width="1.60922"/>
<path d="M3126.93 1421.36V1464M3105.61 1442.68H3148.25" stroke="#64748b" stroke-width="1.60922"/>
<path d="M284.207 0V42.6408M262.887 21.3204H305.527" stroke="#64748b" stroke-width="1.60922"/>
<path d="M284.207 568.543V611.184M262.887 589.864H305.527" stroke="#64748b" stroke-width="1.60922"/>
<path d="M284.207 1137.09V1179.73M262.887 1158.41H305.527" stroke="#64748b" stroke-width="1.60922"/>
<path d="M852.75 0V42.6408M831.43 21.3204H874.07" stroke="#64748b" stroke-width="1.60922"/>
<path d="M852.75 568.543V611.184M831.43 589.864H874.07" stroke="#64748b" stroke-width="1.60922"/>
<path d="M852.75 1137.09V1179.73M831.43 1158.41H874.07" stroke="#64748b" stroke-width="1.60922"/>
<path d="M1421.29 0V42.6408M1399.97 21.3204H1442.61" stroke="#64748b" stroke-width="1.60922"/>
<path d="M1421.29 568.543V611.184M1399.97 589.864H1442.61" stroke="#64748b" stroke-width="1.60922"/>
<path d="M1421.29 1137.09V1179.73M1399.97 1158.41H1442.61" stroke="#64748b" stroke-width="1.60922"/>
<path d="M1989.84 0V42.6408M1968.52 21.3204H2011.16" stroke="#64748b" stroke-width="1.60922"/>
<path d="M1989.84 568.543V611.184M1968.52 589.864H2011.16" stroke="#64748b" stroke-width="1.60922"/>
<path d="M1989.84 1137.09V1179.73M1968.52 1158.41H2011.16" stroke="#64748b" stroke-width="1.60922"/>
<path d="M2558.38 0V42.6408M2537.06 21.3204H2579.7" stroke="#64748b" stroke-width="1.60922"/>
<path d="M2558.38 568.543V611.184M2537.06 589.864H2579.7" stroke="#64748b" stroke-width="1.60922"/>
<path d="M2558.38 1137.09V1179.73M2537.06 1158.41H2579.7" stroke="#64748b" stroke-width="1.60922"/>
<path d="M3126.93 0V42.6408M3105.61 21.3204H3148.25" stroke="#64748b" stroke-width="1.60922"/>
<path d="M3126.93 568.543V611.184M3105.61 589.864H3148.25" stroke="#64748b" stroke-width="1.60922"/>
<path d="M3126.93 1137.09V1179.73M3105.61 1158.41H3148.25" stroke="#64748b" stroke-width="1.60922"/>
<path d="M-0.0663304 284.272V326.913M-21.3867 305.592H21.2541" stroke="#64748b" stroke-width="1.60922"/>
<path d="M-0.0663304 852.815V895.456M-21.3867 874.136H21.2541" stroke="#64748b" stroke-width="1.60922"/>
<path d="M-0.0663304 1421.36V1464M-21.3867 1442.68H21.2541" stroke="#64748b" stroke-width="1.60922"/>
<path d="M568.477 284.272V326.913M547.156 305.592H589.797" stroke="#64748b" stroke-width="1.60922"/>
<path d="M568.477 852.815V895.456M547.156 874.136H589.797" stroke="#64748b" stroke-width="1.60922"/>
<path d="M568.477 1421.36V1464M547.156 1442.68H589.797" stroke="#64748b" stroke-width="1.60922"/>
<path d="M1137.02 284.272V326.913M1115.7 305.592H1158.34" stroke="#64748b" stroke-width="1.60922"/>
<path d="M1137.02 852.815V895.456M1115.7 874.136H1158.34" stroke="#64748b" stroke-width="1.60922"/>
<path d="M1137.02 1421.36V1464M1115.7 1442.68H1158.34" stroke="#64748b" stroke-width="1.60922"/>
<path d="M1705.56 284.272V326.913M1684.24 305.592H1726.88" stroke="#64748b" stroke-width="1.60922"/>
<path d="M1705.56 852.815V895.456M1684.24 874.136H1726.88" stroke="#64748b" stroke-width="1.60922"/>
<path d="M1705.56 1421.36V1464M1684.24 1442.68H1726.88" stroke="#64748b" stroke-width="1.60922"/>
<path d="M2274.11 284.272V326.913M2252.79 305.592H2295.43" stroke="#64748b" stroke-width="1.60922"/>
<path d="M2274.11 852.815V895.456M2252.79 874.136H2295.43" stroke="#64748b" stroke-width="1.60922"/>
<path d="M2274.11 1421.36V1464M2252.79 1442.68H2295.43" stroke="#64748b" stroke-width="1.60922"/>
<path d="M2842.65 284.272V326.913M2821.33 305.592H2863.97" stroke="#64748b" stroke-width="1.60922"/>
<path d="M2842.65 852.815V895.456M2821.33 874.136H2863.97" stroke="#64748b" stroke-width="1.60922"/>
<path d="M2842.65 1421.36V1464M2821.33 1442.68H2863.97" stroke="#64748b" stroke-width="1.60922"/>
<path d="M-0.0663304 0V42.6408M-21.3867 21.3204H21.2541" stroke="#64748b" stroke-width="1.60922"/>
<path d="M-0.0663304 568.543V611.184M-21.3867 589.864H21.2541" stroke="#64748b" stroke-width="1.60922"/>
<path d="M-0.0663304 1137.09V1179.73M-21.3867 1158.41H21.2541" stroke="#64748b" stroke-width="1.60922"/>
<path d="M568.477 0V42.6408M547.156 21.3204H589.797" stroke="#64748b" stroke-width="1.60922"/>
<path d="M568.477 568.543V611.184M547.156 589.864H589.797" stroke="#64748b" stroke-width="1.60922"/>
<path d="M568.477 1137.09V1179.73M547.156 1158.41H589.797" stroke="#64748b" stroke-width="1.60922"/>
<path d="M1137.02 0V42.6408M1115.7 21.3204H1158.34" stroke="#64748b" stroke-width="1.60922"/>
<path d="M1137.02 568.543V611.184M1115.7 589.864H1158.34" stroke="#64748b" stroke-width="1.60922"/>
<path d="M1137.02 1137.09V1179.73M1115.7 1158.41H1158.34" stroke="#64748b" stroke-width="1.60922"/>
<path d="M1705.56 0V42.6408M1684.24 21.3204H1726.88" stroke="#64748b" stroke-width="1.60922"/>
<path d="M1705.56 568.543V611.184M1684.24 589.864H1726.88" stroke="#64748b" stroke-width="1.60922"/>
<path d="M1705.56 1137.09V1179.73M1684.24 1158.41H1726.88" stroke="#64748b" stroke-width="1.60922"/>
<path d="M2274.11 0V42.6408M2252.79 21.3204H2295.43" stroke="#64748b" stroke-width="1.60922"/>
<path d="M2274.11 568.543V611.184M2252.79 589.864H2295.43" stroke="#64748b" stroke-width="1.60922"/>
<path d="M2274.11 1137.09V1179.73M2252.79 1158.41H2295.43" stroke="#64748b" stroke-width="1.60922"/>
<path d="M2842.65 0V42.6408M2821.33 21.3204H2863.97" stroke="#64748b" stroke-width="1.60922"/>
<path d="M2842.65 568.543V611.184M2821.33 589.864H2863.97" stroke="#64748b" stroke-width="1.60922"/>
<path d="M2842.65 1137.09V1179.73M2821.33 1158.41H2863.97" stroke="#64748b" stroke-width="1.60922"/>
</svg>
