<svg width="3126" height="720" viewBox="0 0 3126 720" fill="none" xmlns="http://www.w3.org/2000/svg">
<path d="M51.8049 713.749L76.0883 719M51.8049 713.749L123.767 713.749M51.8049 713.749L26.7144 708.325M51.8049 713.749L0.841138 713.749M76.0883 719L67.2522 718.998L58.5074 718.986L49.9448 718.954L41.6507 718.891L33.7163 718.789L26.226 718.635L19.2695 718.422L12.8127 718.149L7.27187 717.773L2.22744 717.336L0.841138 717.183L0.841138 713.749M76.0883 719L146.893 719M146.893 719L217.698 719M146.893 719L123.767 713.749M217.698 719L288.504 719M217.698 719L195.729 713.749M288.504 719L359.309 719M288.504 719L267.689 713.749M359.309 719L430.114 719M359.309 719L339.651 713.749M430.114 719L500.921 719M430.114 719L411.612 713.749M500.921 719L571.725 719M500.921 719L483.574 713.749M571.725 719L642.53 719M571.725 719L555.536 713.749M642.53 719L713.337 719M642.53 719L627.498 713.749M713.337 719L784.142 719M713.337 719L699.46 713.749M784.142 719L854.946 719M784.142 719L771.421 713.749M854.946 719L925.751 719M854.946 719L843.383 713.749M925.751 719L996.558 719M925.751 719L923.182 717.703L919.286 715.739L915.345 713.749M996.558 719L1067.36 719M996.558 719L994.273 717.703L987.307 713.749M1067.36 719L1138.17 719M1067.36 719L1059.27 713.749M1138.17 719L1208.97 719M1138.17 719L1135.59 717.05L1132.98 715.078L1132.11 714.415L1131.23 713.749M1208.97 719L1279.78 719M1208.97 719L1206.83 717.05L1206.11 716.396L1205.38 715.739L1203.19 713.749M1279.78 719L1350.58 719M1279.78 719L1275.15 713.749M1350.58 719L1350.16 718.353L1349.73 717.703L1347.56 714.415L1347.11 713.749M1350.58 719L1421.39 719M1421.39 719L1492.2 719M1421.39 719L1419.08 713.749M1492.2 719L1563 719M1492.2 719L1491.77 717.05L1491.04 713.749M1563 719L1633.8 719M1563 719L1563 713.749M1633.8 719L1704.61 719M1633.8 719L1634.23 717.05L1634.96 713.749M1704.61 719L1775.42 719M1704.61 719L1706.92 713.749M1775.42 719L1775.84 718.353L1776.27 717.703L1778.44 714.415L1778.89 713.749M1775.42 719L1846.22 719M1846.22 719L1917.03 719M1846.22 719L1850.26 714.415L1850.85 713.749M1917.03 719L1987.83 719M1917.03 719L1919.17 717.05L1919.89 716.396L1921.35 715.078L1922.08 714.415L1922.81 713.749M1987.83 719L2058.64 719M1987.83 719L1990.41 717.05L1993.01 715.078L1993.89 714.415L1994.77 713.749M2058.64 719L2129.44 719M2058.64 719L2066.73 713.749M2129.44 719L2200.25 719M2129.44 719L2131.73 717.703L2138.69 713.749M2200.25 719L2271.05 719M2200.25 719L2210.65 713.749M2271.05 719L2341.86 719M2271.05 719L2282.62 713.749M2341.86 719L2412.66 719M2341.86 719L2354.58 713.749M2412.66 719L2483.47 719M2412.66 719L2426.54 713.749M2483.47 719L2554.27 719M2483.47 719L2498.5 713.749M2554.27 719L2625.08 719M2554.27 719L2570.46 713.749M2625.08 719L2695.89 719M2625.08 719L2642.43 713.749M2695.89 719L2766.69 719M2695.89 719L2714.39 713.749M2766.69 719L2837.5 719M2766.69 719L2786.35 713.749M2837.5 719L2908.3 719M2837.5 719L2858.31 713.749M2908.3 719L2979.11 719M2908.3 719L2930.27 713.749M2979.11 719L3049.91 719M2979.11 719L3002.23 713.749M3049.91 719L3058.75 718.998L3067.49 718.987L3076.05 718.955L3084.35 718.892L3092.28 718.789L3099.77 718.636L3106.73 718.422L3113.19 718.15L3118.73 717.773L3123.77 717.336L3125.16 717.183L3125.16 713.749M3049.91 719L3074.19 713.749M2930.27 713.749L2858.31 713.749M2930.27 713.749L3002.23 713.749M2930.27 713.749L2952.97 708.325M2858.31 713.749L2879.82 708.325M2858.31 713.749L2786.35 713.749M2642.43 713.749L2570.46 713.749M2642.43 713.749L2714.39 713.749M2642.43 713.749L2646.85 712.41L2660.35 708.325M2570.46 713.749L2587.19 708.325M2570.46 713.749L2498.5 713.749M2354.58 713.749L2282.62 713.749M2354.58 713.749L2426.54 713.749M2354.58 713.749L2357.82 712.41L2359.46 711.737L2367.72 708.325M2282.62 713.749L2284.09 713.081L2285.57 712.41L2294.56 708.325M2282.62 713.749L2210.65 713.749M2066.73 713.749L2067.76 713.081L2075.1 708.325M2066.73 713.749L1994.77 713.749M2066.73 713.749L2138.69 713.749M1994.77 713.749L1996.54 712.41L1997.43 711.737L1998.32 711.06L2001.94 708.325M1994.77 713.749L1922.81 713.749M1778.89 713.749L1706.92 713.749M1778.89 713.749L1850.85 713.749M1778.89 713.749L1782.47 708.325M1706.92 713.749L1707.22 713.081L1707.51 712.409L1707.81 711.737L1708.71 709.698L1709.31 708.325M1706.92 713.749L1634.96 713.749M1491.04 713.749L1419.08 713.749M1491.04 713.749L1563 713.749M1491.04 713.749L1489.84 708.325M1419.08 713.749L1418.78 713.081L1418.49 712.409L1418.19 711.737L1416.69 708.325M1419.08 713.749L1347.11 713.749M1203.19 713.749L1131.23 713.749M1203.19 713.749L1275.15 713.749M1203.19 713.749L1201.72 712.409L1198.73 709.698L1197.98 709.013L1197.22 708.325M1131.23 713.749L1129.46 712.409L1128.57 711.737L1127.68 711.06L1124.06 708.325M1131.23 713.749L1059.27 713.749M915.345 713.749L843.383 713.749M915.345 713.749L987.307 713.749M915.345 713.749L912.69 712.409L911.354 711.737L904.592 708.325M843.383 713.749L841.911 713.081L840.433 712.409L831.436 708.325M843.383 713.749L771.421 713.749M627.498 713.749L555.536 713.749M627.498 713.749L699.46 713.749M627.498 713.749L623.662 712.409L621.732 711.737L611.966 708.325M555.536 713.749L538.81 708.325M555.536 713.749L483.574 713.749M339.651 713.749L267.689 713.749M339.651 713.749L411.612 713.749M339.651 713.749L319.341 708.325M267.689 713.749L246.183 708.325M267.689 713.749L195.729 713.749M3125.41 664.646L3125.16 664.646M3052.98 664.646L3025.51 671.576M3052.98 664.646L3081.51 657.451M3052.98 664.646L2970.2 664.646M3052.98 664.646L3125.16 664.646M3025.51 671.576L3106.76 671.576M3025.51 671.576L2999.03 678.255M3025.51 671.576L2944.26 671.576M3106.76 671.576L3078.8 678.255M3106.76 671.576L3125.16 671.576M3106.76 671.576L3125.16 667.18M3025.83 690.914L2948.84 690.914M3025.83 690.914L3000.71 696.917M3025.83 690.914L3102.82 690.914M3025.83 690.914L3051.85 684.697M2948.84 690.914L2925.04 696.917M2948.84 690.914L2973.49 684.697M2948.84 690.914L2871.85 690.914M3000.71 696.917L2925.04 696.917M3000.71 696.917L2976.44 702.717M3000.71 696.917L3076.38 696.917M2925.04 696.917L2849.37 696.917M2925.04 696.917L2902.05 702.717M3125.95 555.264L3125.16 555.264M3059.16 555.264L3023.73 566.753M3059.16 555.264L3096.35 543.203M3059.16 555.264L2952.29 555.264M3059.16 555.264L3125.16 555.264M3023.73 566.753L2989.94 577.711M3023.73 566.753L2919.39 566.753M3023.73 566.753L3125.16 566.753M3091.87 577.711L2989.94 577.711M3091.87 577.711L3057.3 588.174M3091.87 577.711L3125.16 577.711M3091.87 577.711L3125.16 567.634M3024.26 598.174L2926.85 598.174M3024.26 598.174L2992.66 607.74M3024.26 598.174L3121.68 598.174M3024.26 598.174L3057.3 588.174M2926.85 598.174L2897.34 607.74M2926.85 598.174L2957.68 588.174M2926.85 598.174L2829.43 598.174M2992.66 607.74L2897.34 607.74M2992.66 607.74L3087.96 607.74M2992.66 607.74L2962.39 616.903M2897.34 607.74L2869.09 616.903M2897.34 607.74L2802.03 607.74M2905.54 634.11L2816.03 634.11M2905.54 634.11L2878.81 642.2M2905.54 634.11L2995.04 634.11M2905.54 634.11L2933.37 625.685M2816.03 634.11L2791.09 642.2M2816.03 634.11L2842.01 625.685M2816.03 634.11L2726.53 634.11M2878.81 642.2L2791.09 642.2M2878.81 642.2L2966.53 642.2M2878.81 642.2L2853.12 649.974M2791.09 642.2L2767.12 649.974M2791.09 642.2L2703.37 642.2M2804.65 664.646L2721.87 664.646M2804.65 664.646L2781.76 671.576M2804.65 664.646L2887.43 664.646M2804.65 664.646L2828.42 657.451M2721.87 664.646L2700.51 671.576M2721.87 664.646L2744.06 657.451M2721.87 664.646L2639.1 664.646M2781.76 671.576L2700.51 671.576M2781.76 671.576L2863.01 671.576M2781.76 671.576L2759.69 678.255M2700.51 671.576L2679.91 678.255M2700.51 671.576L2619.26 671.576M2717.87 690.914L2640.88 690.914M2717.87 690.914L2698.04 696.917M2717.87 690.914L2794.86 690.914M2717.87 690.914L2738.41 684.697M2640.88 690.914L2622.37 696.917M2640.88 690.914L2660.05 684.697M2640.88 690.914L2563.89 690.914M2698.04 696.917L2622.37 696.917M2698.04 696.917L2678.87 702.717M2698.04 696.917L2773.71 696.917M2622.37 696.917L2546.7 696.917M2622.37 696.917L2604.48 702.717M3070.41 356.072L3020.54 378.711M3070.41 356.072L3123.8 331.829M3070.41 356.072L2919.67 356.072M3070.41 356.072L3125.16 356.072M3020.54 378.711L2973.87 399.9M3020.54 378.711L2874.79 378.711M3020.54 378.711L3125.16 378.711M3021.56 438.454L2888.96 438.454M3021.56 438.454L2978.95 456.041M3021.56 438.454L3066.81 419.775M3021.56 438.454L3125.16 438.454M2888.96 438.454L2850.23 456.041M2888.96 438.454L2930.1 419.775M2888.96 438.454L2756.36 438.454M2978.95 456.041L2850.23 456.041M2978.95 456.041L3107.67 456.041M2978.95 456.041L2938.76 472.63M2850.23 456.041L2813.69 472.63M2850.23 456.041L2721.5 456.041M2864.85 503.134L2746.5 503.134M2864.85 503.134L2830.8 517.189M2864.85 503.134L2983.2 503.134M2864.85 503.134L2900.78 488.302M2746.5 503.134L2715.54 517.189M2746.5 503.134L2779.17 488.302M2746.5 503.134L2628.15 503.134M2830.8 517.189L2715.54 517.189M2830.8 517.189L2946.05 517.189M2830.8 517.189L2798.48 530.528M2715.54 517.189L2686.17 530.528M2715.54 517.189L2600.29 517.189M2738.55 555.264L2631.68 555.264M2738.55 555.264L2710.72 566.753M2738.55 555.264L2845.42 555.264M2738.55 555.264L2767.77 543.203M2631.68 555.264L2606.38 566.753M2631.68 555.264L2658.25 543.203M2631.68 555.264L2524.82 555.264M2710.72 566.753L2606.38 566.753M2710.72 566.753L2815.05 566.753M2710.72 566.753L2684.17 577.711M2606.38 566.753L2582.24 577.711M2606.38 566.753L2502.04 566.753M2634.59 598.174L2537.18 598.174M2634.59 598.174L2611.41 607.74M2634.59 598.174L2732.01 598.174M2634.59 598.174L2658.82 588.174M2537.18 598.174L2516.1 607.74M2537.18 598.174L2559.2 588.174M2537.18 598.174L2439.76 598.174M2611.41 607.74L2516.1 607.74M2611.41 607.74L2706.72 607.74M2611.41 607.74L2589.22 616.903M2516.1 607.74L2495.92 616.902M2516.1 607.74L2420.79 607.74M2547.53 634.11L2458.02 634.11M2547.53 634.11L2527.93 642.2M2547.53 634.11L2637.03 634.11M2547.53 634.11L2567.94 625.685M2458.02 634.11L2455.76 635.139L2440.21 642.2M2458.02 634.11L2476.58 625.685M2458.02 634.11L2368.52 634.11M2527.93 642.2L2440.21 642.2M2527.93 642.2L2615.65 642.2M2527.93 642.2L2509.09 649.974M2440.21 642.2L2423.08 649.974M2440.21 642.2L2352.48 642.2M2473.54 664.646L2390.77 664.646M2473.54 664.646L2456.75 671.576M2473.54 664.646L2556.32 664.646M2473.54 664.646L2490.98 657.451M2390.77 664.646L2375.5 671.576M2390.77 664.646L2396.64 661.98L2406.62 657.451M2390.77 664.646L2307.99 664.646M2456.75 671.576L2375.5 671.576M2456.75 671.576L2538 671.576M2456.75 671.576L2440.57 678.255M2375.5 671.576L2360.79 678.255M2375.5 671.576L2294.25 671.576M2409.9 690.914L2332.91 690.914M2409.9 690.914L2395.36 696.917M2409.9 690.914L2486.89 690.914M2409.9 690.914L2424.96 684.697M2332.91 690.914L2322.95 695.435L2321.32 696.178L2319.69 696.917M2332.91 690.914L2346.6 684.697M2332.91 690.914L2255.92 690.914M2395.36 696.917L2319.69 696.917M2395.36 696.917L2381.31 702.717M2395.36 696.917L2471.03 696.917M2319.69 696.917L2244.02 696.917M2319.69 696.917L2306.92 702.717M3015.79 98.182L2808.25 98.182M3015.79 98.182L2950.44 140.569M3015.79 98.182L3087.6 51.6045M3015.79 98.182L3125.16 98.1811M2808.25 98.182L2752.23 140.569M2808.25 98.182L2869.8 51.6044M2808.25 98.182L2600.71 98.182M2950.44 140.569L2752.23 140.569M2950.44 140.569L2890.72 179.306M2950.44 140.569L3125.16 140.569M2752.23 140.569L2701.04 179.306M2752.23 140.569L2554.03 140.568M2785.47 247.569L2610.83 247.569M2785.47 247.569L2738.87 277.798M2785.47 247.569L2960.11 247.569M2785.47 247.569L2835.92 214.846M2610.83 247.569L2570.89 277.798M2610.83 247.569L2654.08 214.846M2610.83 247.569L2436.19 247.569M2738.87 277.798L2570.89 277.798M2738.87 277.798L2906.85 277.798M2738.87 277.798L2695.68 305.805M2570.89 277.798L2533.87 305.805M2570.89 277.798L2402.9 277.798M2618.18 356.072L2467.44 356.072M2618.18 356.072L2583.28 378.711M2618.18 356.072L2768.93 356.072M2618.18 356.072L2655.56 331.829M2467.44 356.072L2437.53 378.711M2467.44 356.072L2499.48 331.829M2467.44 356.072L2316.7 356.072M2583.28 378.711L2437.53 378.711M2583.28 378.711L2729.04 378.711M2583.28 378.711L2550.61 399.9M2437.53 378.711L2409.52 399.9M2437.53 378.711L2291.77 378.711M2491.17 438.454L2358.58 438.454M2491.17 438.454L2464.06 456.041M2491.17 438.454L2623.77 438.454M2491.17 438.454L2519.97 419.775M2358.58 438.454L2335.33 456.04M2358.58 438.454L2383.26 419.775M2358.58 438.454L2225.98 438.454M2464.06 456.041L2335.33 456.04M2464.06 456.041L2592.78 456.041M2464.06 456.041L2438.48 472.63M2335.33 456.04L2313.41 472.63M2335.33 456.04L2206.61 456.04M2391.45 503.134L2273.1 503.134M2391.45 503.134L2369.78 517.189M2391.45 503.134L2509.8 503.134M2391.45 503.134L2414.32 488.302M2273.1 503.134L2254.53 517.189M2273.1 503.134L2292.7 488.302M2273.1 503.134L2154.75 503.134M2369.78 517.189L2254.53 517.189M2369.78 517.189L2485.04 517.189M2369.78 517.189L2349.22 530.528M2254.53 517.189L2236.9 530.528M2254.53 517.189L2139.27 517.189M2311.08 555.264L2204.21 555.264M2311.08 555.264L2293.36 566.753M2311.08 555.264L2417.95 555.264M2311.08 555.264L2329.67 543.203M2204.21 555.264L2189.03 566.753M2204.21 555.264L2220.15 543.203M2204.21 555.264L2097.34 555.264M2293.36 566.753L2189.03 566.753M2293.36 566.753L2397.7 566.753M2293.36 566.753L2276.47 577.711M2189.03 566.753L2174.55 577.711M2189.03 566.753L2084.69 566.753M2244.92 598.174L2147.5 598.174M2244.92 598.174L2230.17 607.74M2244.92 598.174L2342.34 598.174M2244.92 598.174L2260.34 588.173M2147.5 598.174L2134.86 607.74M2147.5 598.174L2160.72 588.173M2147.5 598.174L2050.09 598.174M2230.17 607.74L2134.86 607.74M2230.17 607.74L2325.48 607.74M2230.17 607.74L2216.05 616.902M2134.86 607.74L2122.75 616.902M2134.86 607.74L2039.55 607.74M2189.52 634.11L2100.01 634.11M2189.52 634.11L2177.04 642.2M2189.52 634.11L2279.02 634.11M2189.52 634.11L2202.51 625.685M2100.01 634.11L2101.38 633.076L2111.15 625.685M2100.01 634.11L2089.32 642.2M2100.01 634.11L2010.51 634.11M2177.04 642.2L2089.32 642.2M2177.04 642.2L2264.76 642.2M2177.04 642.2L2165.06 649.974M2089.32 642.2L2079.05 649.974M2089.32 642.2L2001.6 642.2M2142.44 664.646L2059.66 664.646M2142.44 664.646L2131.75 671.576M2142.44 664.646L2225.21 664.646M2142.44 664.646L2153.53 657.451M2059.66 664.646L2050.5 671.576M2059.66 664.646L2063.18 661.979L2065.56 660.181L2069.17 657.451M2059.66 664.646L1976.88 664.646M2131.75 671.576L2050.5 671.576M2131.75 671.576L2213 671.576M2131.75 671.576L2121.46 678.255M2050.5 671.576L2047.15 674.11L2044.95 675.779L2041.67 678.255M2050.5 671.576L1969.25 671.576M2101.94 690.914L2024.95 690.914M2101.94 690.914L2094.97 695.435L2092.68 696.917M2101.94 690.914L2178.93 690.914M2101.94 690.914L2110.31 685.487L2111.52 684.697M2024.95 690.914L2018.97 695.435L2017.99 696.178L2017.01 696.917M2024.95 690.914L2029.02 687.833L2033.16 684.697M2024.95 690.914L1947.96 690.914M2092.68 696.917L2017.01 696.917M2092.68 696.917L2083.74 702.717M2092.68 696.917L2168.35 696.917M2017.01 696.917L1941.34 696.917M2017.01 696.917L2009.35 702.717M2185.62 98.1819L1978.08 98.1819M2185.62 98.1819L2157.62 140.568M2185.62 98.1819L2393.17 98.1819M2185.62 98.1819L2216.4 51.6044M1978.08 98.1819L1959.41 140.568M1978.08 98.1819L1998.6 51.6044M1978.08 98.1819L1770.54 98.1819M2157.62 140.568L1959.41 140.568M2157.62 140.568L2355.82 140.568M2157.62 140.568L2132.02 179.306M1959.41 140.568L1942.35 179.306M1959.41 140.568L1761.21 140.568M2086.92 247.569L1912.28 247.569M2086.92 247.569L2066.94 277.797M2086.92 247.569L2261.56 247.569M2086.92 247.569L2108.54 214.846M1912.28 247.569L1898.96 277.797M1912.28 247.569L1926.69 214.846M1912.28 247.569L1737.64 247.569M2066.94 277.797L1898.96 277.797M2066.94 277.797L2234.92 277.798M2066.94 277.797L2048.44 305.805M1898.96 277.797L1886.62 305.805M1898.96 277.797L1730.98 277.797M2015.22 356.072L1864.48 356.072M2015.22 356.072L2000.26 378.711M2015.22 356.072L2165.96 356.072M2015.22 356.072L2031.24 331.829M1864.48 356.072L1854.51 378.711M1864.48 356.072L1875.16 331.829M1864.48 356.072L1713.74 356.072M2000.26 378.711L1854.51 378.711M2000.26 378.711L2146.02 378.711M2000.26 378.711L1986.26 399.9M1854.51 378.711L1845.17 399.9M1854.51 378.711L1708.75 378.711M1960.79 438.454L1828.19 438.454M1960.79 438.454L1949.17 456.04M1960.79 438.454L2093.38 438.454M1960.79 438.454L1973.13 419.775M1828.19 438.454L1820.45 456.04M1828.19 438.454L1836.42 419.775M1828.19 438.454L1695.6 438.454M1949.17 456.04L1820.45 456.04M1949.17 456.04L2077.89 456.04M1949.17 456.04L1938.21 472.63M1820.45 456.04L1813.14 472.63M1820.45 456.04L1691.72 456.04M1918.05 503.134L1799.7 503.134M1918.05 503.134L1908.76 517.189M1918.05 503.134L2036.4 503.134M1918.05 503.134L1927.85 488.302M1799.7 503.134L1793.51 517.189M1799.7 503.134L1806.23 488.302M1799.7 503.134L1681.35 503.134M1908.76 517.189L1793.51 517.189M1908.76 517.189L2024.02 517.189M1908.76 517.189L1899.95 530.528M1793.51 517.189L1787.63 530.528M1793.51 517.189L1678.25 517.189M1883.61 555.264L1776.74 555.264M1883.61 555.264L1876.01 566.753M1883.61 555.264L1990.47 555.264M1883.61 555.264L1891.57 543.203M1776.74 555.264L1771.67 566.753M1776.74 555.264L1782.05 543.203M1776.74 555.264L1669.87 555.264M1876.01 566.753L1771.67 566.753M1876.01 566.753L1980.35 566.753M1876.01 566.753L1873.26 570.922L1868.77 577.711M1771.67 566.753L1766.85 577.711M1771.67 566.753L1667.34 566.753M1855.25 598.174L1757.84 598.174M1855.25 598.174L1848.93 607.74M1855.25 598.174L1952.67 598.174M1855.25 598.174L1860.18 590.715L1861.86 588.173M1757.84 598.174L1756.23 601.81L1753.62 607.74M1757.84 598.174L1762.24 588.173M1757.84 598.174L1660.42 598.174M1848.93 607.74L1848.16 608.908L1842.88 616.902M1848.93 607.74L1753.62 607.74M1848.93 607.74L1944.24 607.74M1753.62 607.74L1752.09 611.222L1751.58 612.371L1751.08 613.512L1749.59 616.902M1753.62 607.74L1658.31 607.74M1831.51 634.11L1742.01 634.11M1831.51 634.11L1828.81 638.196L1828.14 639.204L1827.48 640.208L1826.82 641.206L1826.16 642.2M1831.51 634.11L1921.01 634.11M1831.51 634.11L1837.07 625.685M1742.01 634.11L1739.32 640.208L1738.88 641.206L1738.44 642.2M1742.01 634.11L1745.72 625.685M1742.01 634.11L1652.5 634.11M1826.16 642.2L1738.44 642.2M1826.16 642.2L1913.88 642.2M1826.16 642.2L1822.93 647.095L1822.29 648.06L1821.02 649.974M1738.44 642.2L1736.29 647.095L1735.86 648.06L1735.44 649.02L1735.02 649.974M1738.44 642.2L1650.72 642.2M1811.33 664.646L1728.55 664.646M1811.33 664.646L1806.75 671.576M1811.33 664.646L1894.11 664.646M1811.33 664.646L1812.5 662.873L1814.28 660.181L1816.08 657.451M1728.55 664.646L1728.94 663.762L1731.32 658.365L1731.72 657.451M1728.55 664.646L1725.5 671.576M1728.55 664.646L1645.78 664.646M1806.75 671.576L1725.5 671.576M1806.75 671.576L1888 671.576M1806.75 671.576L1802.34 678.255M1725.5 671.576L1724.38 674.11L1724.02 674.947L1723.65 675.779L1722.56 678.255M1725.5 671.576L1644.25 671.576M1793.97 690.914L1716.98 690.914M1793.97 690.914L1790.99 695.435L1790.01 696.917M1793.97 690.914L1870.96 690.914M1793.97 690.914L1795.5 688.608L1796.01 687.833L1796.52 687.054L1798.08 684.697M1716.98 690.914L1716.65 691.675L1715.98 693.189L1715.32 694.69L1714.34 696.917M1716.98 690.914L1718.34 687.833L1718.68 687.054L1719.37 685.486L1719.72 684.697M1716.98 690.914L1639.99 690.914M1790.01 696.917L1714.34 696.917M1790.01 696.917L1786.65 702.003L1786.17 702.717M1790.01 696.917L1865.68 696.917M1714.34 696.917L1714.01 697.653L1713.69 698.386L1713.37 699.115L1713.05 699.842L1712.1 702.003L1711.78 702.717M1714.34 696.917L1638.67 696.917M1355.46 98.1819L1147.92 98.1818M1355.46 98.1819L1364.79 140.568M1355.46 98.1819L1563 98.1819M1355.46 98.1819L1345.2 51.6043M1147.92 98.1818L1166.59 140.568M1147.92 98.1818L1127.4 51.6043M1147.92 98.1818L940.376 98.1818M1364.79 140.568L1166.59 140.568M1364.79 140.568L1563 140.568M1364.79 140.568L1373.33 179.306M1166.59 140.568L1183.65 179.306M1166.59 140.568L968.382 140.568M1388.36 247.569L1213.72 247.569M1388.36 247.569L1395.02 277.797M1388.36 247.569L1563 247.569M1388.36 247.569L1381.15 214.846M1213.72 247.569L1227.04 277.797M1213.72 247.569L1199.31 214.846M1213.72 247.569L1039.08 247.569M1395.02 277.797L1227.04 277.797M1395.02 277.797L1563 277.797M1395.02 277.797L1401.19 305.805M1227.04 277.797L1239.38 305.805M1227.04 277.797L1059.06 277.797M1412.26 356.072L1261.52 356.072M1412.26 356.072L1417.25 378.711M1412.26 356.072L1563 356.072M1412.26 356.072L1406.92 331.829M1261.52 356.072L1271.49 378.711M1261.52 356.072L1250.84 331.829M1261.52 356.072L1110.78 356.072M1417.25 378.711L1271.49 378.711M1417.25 378.711L1563 378.711M1417.25 378.711L1421.91 399.9M1271.49 378.711L1280.83 399.9M1271.49 378.711L1125.74 378.711M1430.4 438.454L1297.81 438.454M1430.4 438.454L1434.28 456.04M1430.4 438.454L1563 438.454M1430.4 438.454L1426.29 419.775M1297.81 438.454L1305.55 456.04M1297.81 438.454L1289.58 419.775M1297.81 438.454L1165.21 438.454M1434.28 456.04L1305.55 456.04M1434.28 456.04L1563 456.04M1434.28 456.04L1437.93 472.63M1305.55 456.04L1312.86 472.63M1305.55 456.04L1176.83 456.04M1444.65 503.134L1326.3 503.134M1444.65 503.134L1447.75 517.189M1444.65 503.134L1563 503.134M1444.65 503.134L1441.38 488.302M1326.3 503.134L1332.49 517.189M1326.3 503.134L1319.77 488.302M1326.3 503.134L1207.95 503.134M1447.75 517.189L1332.49 517.189M1447.75 517.189L1563 517.189M1447.75 517.189L1450.68 530.528M1332.49 517.189L1338.37 530.528M1332.49 517.189L1217.24 517.189M1456.13 555.264L1349.26 555.264M1456.13 555.264L1458.66 566.753M1456.13 555.264L1563 555.264M1456.13 555.264L1453.47 543.203M1349.26 555.264L1354.32 566.753M1349.26 555.264L1343.95 543.203M1349.26 555.264L1242.39 555.264M1458.66 566.753L1354.32 566.753M1458.66 566.753L1563 566.753M1458.66 566.753L1461.08 577.711M1354.32 566.753L1359.15 577.711M1354.32 566.753L1249.99 566.753M1465.58 598.174L1368.16 598.174M1465.58 598.174L1467.69 607.74M1465.58 598.174L1563 598.174M1465.58 598.174L1463.38 588.173M1368.16 598.174L1371.86 606.567L1372.38 607.74M1368.16 598.174L1363.76 588.173M1368.16 598.174L1270.75 598.174M1467.69 607.74L1467.95 608.907L1469.71 616.902M1467.69 607.74L1372.38 607.74M1467.69 607.74L1563 607.74M1372.38 607.74L1373.91 611.222L1374.42 612.371L1374.92 613.512L1376.41 616.902M1372.38 607.74L1277.07 607.74M1473.5 634.11L1383.99 634.11M1473.5 634.11L1475.28 642.2M1473.5 634.11L1563 634.11M1473.5 634.11L1472.81 630.991L1472.58 629.941L1472.35 628.885L1471.88 626.757L1471.64 625.685M1383.99 634.11L1386.68 640.208L1387.56 642.2M1383.99 634.11L1380.28 625.685M1383.99 634.11L1294.49 634.11M1475.28 642.2L1387.56 642.2M1475.28 642.2L1563 642.2M1475.28 642.2L1476.99 649.974M1387.56 642.2L1389.71 647.095L1390.14 648.06L1390.56 649.019L1390.98 649.974M1387.56 642.2L1299.84 642.2M1480.22 664.646L1397.45 664.646M1480.22 664.646L1481.75 671.576M1480.22 664.646L1563 664.646M1480.22 664.646L1478.64 657.451M1397.45 664.646L1397.06 663.762L1394.68 658.365L1394.28 657.451M1397.45 664.646L1400.5 671.576M1397.45 664.646L1314.67 664.646M1481.75 671.576L1400.5 671.576M1481.75 671.576L1563 671.576M1481.75 671.576L1483.22 678.255M1400.5 671.576L1401.62 674.11L1401.98 674.947L1402.35 675.779L1403.44 678.255M1400.5 671.576L1319.25 671.576M1486.01 690.914L1409.02 690.914M1486.01 690.914L1487.33 696.917M1486.01 690.914L1563 690.914M1486.01 690.914L1484.64 684.697M1409.02 690.914L1409.35 691.675L1410.02 693.189L1410.35 693.942L1411.01 695.435L1411.34 696.178L1411.66 696.917M1409.02 690.914L1407.66 687.833L1407.32 687.054L1406.63 685.486L1406.28 684.697M1409.02 690.914L1332.03 690.914M1487.33 696.917L1487.49 697.653L1487.65 698.386L1487.81 699.115L1488.61 702.717M1487.33 696.917L1411.66 696.917M1487.33 696.917L1563 696.917M1411.66 696.917L1335.99 696.917M1411.66 696.917L1412.31 698.386L1412.63 699.115L1412.95 699.842L1413.9 702.003L1414.22 702.717M525.292 98.1818L317.751 98.1818M525.292 98.1818L571.971 140.568M525.292 98.1818L732.833 98.1818M525.292 98.1818L473.998 51.6042M317.751 98.1818L373.766 140.568M317.751 98.1818L256.199 51.6042M317.751 98.1818L110.209 98.1817M571.971 140.568L373.766 140.568M571.971 140.568L770.177 140.568M571.971 140.568L614.631 179.306M373.766 140.568L424.958 179.306M373.766 140.568L175.559 140.568M689.807 247.569L515.167 247.569M689.807 247.569L723.096 277.797M689.807 247.569L864.445 247.569M689.807 247.569L653.77 214.846M515.167 247.569L555.115 277.797M515.167 247.569L471.925 214.846M515.167 247.569L340.529 247.569M723.096 277.797L555.115 277.797M723.096 277.797L891.076 277.797M723.096 277.797L753.94 305.805M555.115 277.797L592.128 305.805M555.115 277.797L387.134 277.797M809.296 356.072L658.556 356.072M809.296 356.072L834.229 378.711M809.296 356.072L960.038 356.072M809.296 356.072L782.598 331.829M658.556 356.072L688.473 378.711M658.556 356.072L626.518 331.829M658.556 356.072L507.815 356.072M834.229 378.711L688.473 378.711M834.229 378.711L979.983 378.711M834.229 378.711L857.563 399.9M688.473 378.711L716.476 399.9M688.473 378.711L542.72 378.711M900.02 438.454L767.423 438.454M900.02 438.454L919.387 456.04M900.02 438.454L1032.62 438.454M900.02 438.454L879.45 419.775M767.423 438.454L790.665 456.04M767.423 438.454L742.74 419.775M767.423 438.454L634.827 438.454M919.387 456.04L790.665 456.04M919.387 456.04L1048.11 456.04M919.387 456.04L937.656 472.63M790.665 456.04L812.588 472.63M790.665 456.04L661.944 456.04M971.249 503.134L852.9 503.134M971.249 503.134L986.728 517.189M971.249 503.134L1089.6 503.134M971.249 503.134L954.917 488.302M852.9 503.134L871.473 517.189M852.9 503.134L833.299 488.302M852.9 503.134L734.548 503.134M986.728 517.189L871.473 517.189M986.728 517.189L1101.98 517.189M986.728 517.189L1001.42 530.528M871.473 517.189L889.099 530.528M871.473 517.189L756.218 517.189M1028.66 555.264L921.789 555.264M1028.66 555.264L1041.31 566.753M1028.66 555.264L1135.53 555.264M1028.66 555.264L1015.38 543.203M921.789 555.264L936.973 566.753M921.789 555.264L905.85 543.203M921.789 555.264L814.921 555.264M1041.31 566.753L936.973 566.753M1041.31 566.753L1145.65 566.753M1041.31 566.753L1053.38 577.711M936.973 566.753L951.454 577.711M936.973 566.753L832.635 566.753M1075.91 598.174L1074.56 596.947L1073.2 595.715L1064.9 588.173M1075.91 598.174L978.495 598.174M1075.91 598.174L1086.45 607.74M1075.91 598.174L1173.33 598.174M978.495 598.174L991.138 607.74M978.495 598.174L965.281 588.173M978.495 598.174L881.077 598.174M1086.45 607.74L991.138 607.74M1086.45 607.74L1181.76 607.74M1086.45 607.74L1096.54 616.902M991.138 607.74L1003.25 616.902M991.138 607.74L895.828 607.74M1115.49 634.11L1025.99 634.11M1115.49 634.11L1124.4 642.2M1115.49 634.11L1204.99 634.11M1115.49 634.11L1106.21 625.685M1025.99 634.11L1032.72 639.204L1036.68 642.2M1025.99 634.11L1014.85 625.685M1025.99 634.11L936.483 634.11M1124.4 642.2L1036.68 642.2M1124.4 642.2L1212.12 642.2M1124.4 642.2L1131.91 649.019L1132.96 649.974M1036.68 642.2L1046.95 649.974M1036.68 642.2L948.956 642.2M1149.12 664.646L1066.34 664.646M1149.12 664.646L1151.05 666.404L1156.75 671.576M1149.12 664.646L1231.89 664.646M1149.12 664.646L1147.16 662.873L1143.2 659.276L1141.19 657.451M1066.34 664.646L1075.5 671.576M1066.34 664.646L1062.82 661.979L1060.44 660.181L1056.83 657.451M1066.34 664.646L983.563 664.646M1156.75 671.576L1075.5 671.576M1156.75 671.576L1238 671.576M1156.75 671.576L1162.29 676.609L1164.1 678.255M1075.5 671.576L1078.85 674.11L1081.05 675.779L1084.33 678.255M1075.5 671.576L994.247 671.576M1178.04 690.914L1101.05 690.914M1178.04 690.914L1182.2 694.69L1184.65 696.917M1178.04 690.914L1255.03 690.914M1178.04 690.914L1171.2 684.697M1101.05 690.914L1107.03 695.435L1108.01 696.178L1108.99 696.917M1101.05 690.914L1096.98 687.833L1092.84 684.697M1101.05 690.914L1024.06 690.914M1184.65 696.917L1108.99 696.917M1184.65 696.917L1187.88 699.842L1189.46 701.285L1190.26 702.003L1191.04 702.717M1184.65 696.917L1260.32 696.917M1108.99 696.917L1033.32 696.917M1108.99 696.917L1116.65 702.717M51.1721 277.797L219.153 277.797M51.1721 277.797L106.69 305.805M51.1721 277.797L0.841176 277.797M51.1721 277.797L0.841179 252.406M206.333 356.072L55.5932 356.072M206.333 356.072L251.21 378.711M206.333 356.072L357.074 356.072M206.333 356.072L158.277 331.829M55.5932 356.072L105.455 378.711M55.5932 356.072L2.19668 331.829M55.5932 356.072L0.84117 356.072M251.21 378.711L105.455 378.711M251.21 378.711L396.964 378.711M251.21 378.711L293.214 399.9M105.455 378.711L152.126 399.9M105.455 378.711L0.841168 378.711M369.636 438.454L237.04 438.454M369.636 438.454L404.498 456.04M369.636 438.454L502.232 438.454M369.636 438.454L332.61 419.775M237.04 438.454L275.775 456.04M237.04 438.454L195.899 419.775M237.04 438.454L104.443 438.454M404.498 456.04L275.775 456.04M404.498 456.04L533.22 456.04M404.498 456.04L437.382 472.63M275.775 456.04L312.313 472.63M275.775 456.04L147.053 456.04M497.848 503.134L379.499 503.134M497.848 503.134L525.709 517.189M497.848 503.134L616.198 503.134M497.848 503.134L468.449 488.302M379.499 503.134L410.456 517.189M379.499 503.134L346.832 488.302M379.499 503.134L261.147 503.134M525.709 517.189L410.456 517.189M525.709 517.189L640.963 517.189M525.709 517.189L552.15 530.527M410.456 517.189L439.834 530.527M410.456 517.189L295.201 517.189M601.184 555.264L494.316 555.264M601.184 555.264L623.959 566.753M601.184 555.264L708.052 555.264M601.184 555.264L577.276 543.203M494.316 555.264L519.621 566.753M494.316 555.264L467.751 543.203M494.316 555.264L387.448 555.264M623.959 566.753L519.621 566.753M623.959 566.753L728.296 566.753M623.959 566.753L645.681 577.711M519.621 566.753L543.756 577.711M519.621 566.753L415.283 566.753M686.242 598.174L588.825 598.173M686.242 598.174L705.207 607.74M686.242 598.174L783.66 598.174M686.242 598.174L666.42 588.173M588.825 598.173L609.898 607.74M588.825 598.173L566.8 588.173M588.825 598.173L491.408 598.173M705.207 607.74L609.898 607.74M705.207 607.74L800.517 607.74M705.207 607.74L723.369 616.902M609.898 607.74L630.077 616.902M609.898 607.74L514.586 607.74M757.479 634.11L667.977 634.11M757.479 634.11L773.516 642.2M757.479 634.11L846.981 634.11M757.479 634.11L740.777 625.685M667.977 634.11L685.794 642.2M667.977 634.11L649.419 625.685M667.977 634.11L578.474 634.11M773.516 642.2L685.794 642.2M773.516 642.2L861.236 642.2M773.516 642.2L788.926 649.974M685.794 642.2L702.918 649.974M685.794 642.2L598.074 642.2M818.01 664.646L735.233 664.646M818.01 664.646L831.747 671.576M818.01 664.646L900.786 664.646M818.01 664.646L814.493 662.873L812.724 661.979L803.745 657.451M735.233 664.646L750.497 671.576M735.233 664.646L719.384 657.451M735.233 664.646L652.457 664.646M831.747 671.576L750.497 671.576M831.747 671.576L912.997 671.576M831.747 671.576L844.986 678.255M750.497 671.576L765.207 678.255M750.497 671.576L669.247 671.576M870.078 690.914L793.087 690.914M870.078 690.914L881.978 696.917M870.078 690.914L947.07 690.914M870.078 690.914L857.755 684.697M793.087 690.914L803.047 695.435L804.681 696.178L806.31 696.917M793.087 690.914L779.395 684.697M793.087 690.914L716.097 690.914M881.978 696.917L806.31 696.917M881.978 696.917L892.059 702.003L893.477 702.717M881.978 696.917L957.647 696.917M806.31 696.917L730.639 696.917M806.31 696.917L819.084 702.717M24.4476 503.134L64.6912 517.189M24.4476 503.134L142.798 503.134M24.4476 503.134L0.841157 494.889M24.4476 503.134L0.841157 503.134M64.6912 517.189L179.946 517.189M64.6912 517.189L102.883 530.527M64.6912 517.189L0.841156 517.189M173.71 555.264L66.8407 555.264M173.71 555.264L206.608 566.753M173.71 555.264L280.578 555.264M173.71 555.264L139.177 543.203M66.8407 555.264L102.269 566.753M66.8407 555.264L29.6515 543.203M66.8407 555.264L0.841152 555.264M206.608 566.753L102.269 566.753M206.608 566.753L310.946 566.753M206.608 566.753L237.983 577.711M102.269 566.753L136.059 577.711M102.269 566.753L0.841151 566.753M296.573 598.173L199.154 598.173M296.573 598.173L323.966 607.74M296.573 598.173L393.989 598.173M296.573 598.173L267.939 588.173M199.154 598.173L228.656 607.74M199.154 598.173L168.321 588.173M199.154 598.173L101.737 598.173M323.966 607.74L228.656 607.74M323.966 607.74L419.277 607.74M323.966 607.74L350.2 616.902M228.656 607.74L256.907 616.902M228.656 607.74L133.345 607.74M399.47 634.11L309.968 634.11M399.47 634.11L422.634 642.2M399.47 634.11L488.972 634.11M399.47 634.11L375.346 625.685M309.968 634.11L334.912 642.2M309.968 634.11L283.987 625.685M309.968 634.11L220.464 634.11M422.634 642.2L334.912 642.2M422.634 642.2L510.354 642.2M422.634 642.2L444.893 649.974M334.912 642.2L358.885 649.974M334.912 642.2L247.192 642.2M486.902 664.646L404.126 664.646M486.902 664.646L506.745 671.576M486.902 664.646L569.678 664.646M486.902 664.646L466.299 657.451M404.126 664.646L425.494 671.576M404.126 664.646L381.938 657.451M404.126 664.646L321.349 664.646M506.745 671.576L425.494 671.576M506.745 671.576L587.996 671.576M506.745 671.576L525.87 678.255M425.494 671.576L446.091 678.255M425.494 671.576L344.244 671.576M562.113 690.914L485.122 690.914M562.113 690.914L579.302 696.917M562.113 690.914L639.105 690.914M562.113 690.914L544.315 684.697M485.122 690.914L503.633 696.917M485.122 690.914L465.953 684.697M485.122 690.914L408.13 690.914M579.302 696.917L503.633 696.917M579.302 696.917L595.91 702.717M579.302 696.917L654.971 696.917M503.633 696.917L427.963 696.917M503.633 696.917L521.518 702.717M41.4606 634.11L71.7518 642.2M41.4606 634.11L130.962 634.11M41.4606 634.11L9.91298 625.685M41.4606 634.11L0.841145 634.11M71.7518 642.2L159.472 642.2M71.7518 642.2L100.86 649.974M71.7518 642.2L0.841145 642.2M155.796 664.646L73.0193 664.646M155.796 664.646L181.744 671.576M155.796 664.646L238.572 664.646M155.796 664.646L128.853 657.451M73.0193 664.646L100.494 671.576M73.0193 664.646L44.492 657.451M73.0193 664.646L0.841143 664.646M181.744 671.576L100.494 671.576M181.744 671.576L262.994 671.576M181.744 671.576L206.753 678.255M100.494 671.576L126.974 678.255M100.494 671.576L19.2436 671.576M254.148 690.914L177.157 690.914M254.148 690.914L276.626 696.917M254.148 690.914L331.14 690.914M254.148 690.914L230.872 684.697M177.157 690.914L200.957 696.917M177.157 690.914L152.512 684.697M177.157 690.914L100.165 690.914M276.626 696.917L200.957 696.917M276.626 696.917L298.343 702.717M276.626 696.917L352.294 696.917M200.957 696.917L125.287 696.917M200.957 696.917L223.952 702.717M152.512 684.697L126.974 678.255M152.512 684.697L74.1504 684.697M152.512 684.697L230.872 684.697M100.165 690.914L125.287 696.917M100.165 690.914L74.1504 684.697M100.165 690.914L23.1751 690.914M125.287 696.917L49.6179 696.917M125.287 696.917L149.56 702.717M223.952 702.717L298.343 702.717M223.952 702.717L149.56 702.717M223.952 702.717L246.183 708.325M74.1504 684.697L47.1933 678.255M74.1504 684.697L0.841141 684.697M23.1751 690.914L49.6179 696.917M23.1751 690.914L0.841141 685.844M23.1751 690.914L0.84114 690.914M49.6179 696.917L75.169 702.717M49.6179 696.917L0.84114 696.917M149.56 702.717L75.169 702.717M149.56 702.717L173.027 708.325M75.169 702.717L99.8707 708.325M75.169 702.717L0.841139 702.717M126.974 678.255L47.1933 678.255M126.974 678.255L206.753 678.255M19.2436 671.576L47.1933 678.255M19.2436 671.576L0.841142 667.179M19.2436 671.576L0.841142 671.576M47.1933 678.255L0.841141 678.255M206.753 678.255L286.532 678.255M206.753 678.255L230.872 684.697M230.872 684.697L309.232 684.697M44.492 657.451L14.8517 649.974M44.492 657.451L128.853 657.451M44.492 657.451L0.841143 657.451M0.588871 664.646L0.841143 664.646M14.8517 649.974L100.86 649.974M14.8517 649.974L0.841144 646.44M14.8517 649.974L0.841144 649.974M100.86 649.974L186.868 649.974M100.86 649.974L128.853 657.451M128.853 657.451L213.215 657.451M465.953 684.697L446.091 678.255M465.953 684.697L387.593 684.697M465.953 684.697L544.315 684.697M408.13 690.914L427.963 696.917M408.13 690.914L387.593 684.697M408.13 690.914L331.14 690.914M427.963 696.917L352.294 696.917M427.963 696.917L447.127 702.717M521.518 702.717L447.127 702.717M521.518 702.717L538.81 708.325M521.518 702.717L595.91 702.717M387.593 684.697L366.311 678.255M387.593 684.697L309.232 684.697M331.14 690.914L352.294 696.917M331.14 690.914L309.232 684.697M352.294 696.917L372.734 702.717M447.127 702.717L372.734 702.717M447.127 702.717L465.653 708.325M309.232 684.697L286.532 678.255M298.343 702.717L372.734 702.717M298.343 702.717L319.341 708.325M372.734 702.717L392.497 708.325M446.091 678.255L366.311 678.255M446.091 678.255L525.87 678.255M344.244 671.576L366.311 678.255M344.244 671.576L321.349 664.646M344.244 671.576L262.994 671.576M366.311 678.255L286.532 678.255M525.87 678.255L605.649 678.255M525.87 678.255L544.315 684.697M286.532 678.255L262.994 671.576M544.315 684.697L622.675 684.697M321.349 664.646L297.576 657.451M321.349 664.646L238.572 664.646M262.994 671.576L238.572 664.646M238.572 664.646L213.215 657.451M381.938 657.451L358.885 649.974M381.938 657.451L297.576 657.451M381.938 657.451L466.299 657.451M297.576 657.451L272.877 649.974M297.576 657.451L213.215 657.451M213.215 657.451L186.868 649.974M358.885 649.974L272.877 649.974M358.885 649.974L444.893 649.974M247.192 642.2L272.877 649.974M247.192 642.2L220.464 634.11M247.192 642.2L159.472 642.2M272.877 649.974L186.868 649.974M444.893 649.974L530.901 649.974M444.893 649.974L466.299 657.451M186.868 649.974L159.472 642.2M466.299 657.451L550.661 657.451M220.464 634.11L192.629 625.685M220.464 634.11L130.962 634.11M159.472 642.2L130.962 634.11M130.962 634.11L101.272 625.685M283.987 625.685L256.907 616.902M283.987 625.685L192.629 625.685M283.987 625.685L375.346 625.685M192.629 625.685L163.615 616.902M192.629 625.685L101.272 625.685M101.272 625.685L70.323 616.902M101.272 625.685L9.91298 625.685M9.91298 625.685L0.841146 625.685M9.91298 625.685L0.841146 623.262M256.907 616.902L163.615 616.902M256.907 616.902L350.2 616.902M133.345 607.74L163.615 616.902M133.345 607.74L101.737 598.173M133.345 607.74L38.0353 607.74M163.615 616.902L70.323 616.902M350.2 616.902L443.492 616.902M350.2 616.902L375.346 625.685M70.323 616.902L38.0353 607.74M70.323 616.902L0.841147 616.902M375.346 625.685L466.703 625.685M101.737 598.173L68.7007 588.173M101.737 598.173L4.32011 598.173M38.0353 607.74L4.32011 598.173M38.0353 607.74L0.841148 607.74M0.352893 616.902L0.841147 616.902M4.32011 598.173L0.841149 597.186M4.32011 598.173L0.841148 598.173M168.321 588.173L136.059 577.711M168.321 588.173L68.7007 588.173M168.321 588.173L267.939 588.173M68.7007 588.173L34.1346 577.711M68.7007 588.173L0.841149 588.173M-8.66237e-05 596.947L0.841149 597.186M136.059 577.711L34.1346 577.711M136.059 577.711L237.983 577.711M34.1346 577.711L0.84115 577.711M34.1346 577.711L0.841151 567.634M237.983 577.711L339.908 577.711M237.983 577.711L267.939 588.173M267.939 588.173L367.559 588.173M29.6515 543.203L139.177 543.203M29.6515 543.203L0.841154 533.859M29.6515 543.203L0.841153 543.203M0.0485835 555.264L0.841152 555.264M139.177 543.203L248.702 543.203M139.177 543.203L102.883 530.527M0.523928 533.757L0.841154 533.859M779.395 684.697L765.207 678.255M779.395 684.697L701.035 684.697M779.395 684.697L857.755 684.697M716.097 690.914L730.639 696.917M716.097 690.914L701.035 684.697M716.097 690.914L639.105 690.914M730.639 696.917L654.971 696.917M730.639 696.917L744.692 702.717M819.084 702.717L744.692 702.717M819.084 702.717L823.765 704.842L831.436 708.325M819.084 702.717L893.477 702.717M701.035 684.697L685.428 678.255M701.035 684.697L622.675 684.697M639.105 690.914L654.971 696.917M639.105 690.914L622.675 684.697M654.971 696.917L670.301 702.717M744.692 702.717L670.301 702.717M744.692 702.717L758.278 708.325M622.675 684.697L605.649 678.255M595.91 702.717L611.966 708.325M595.91 702.717L670.301 702.717M670.301 702.717L672.181 703.429L675.918 704.842L685.122 708.325M765.207 678.255L685.428 678.255M765.207 678.255L844.986 678.255M669.247 671.576L685.428 678.255M669.247 671.576L652.457 664.646M669.247 671.576L587.996 671.576M685.428 678.255L605.649 678.255M844.986 678.255L924.765 678.255M844.986 678.255L857.755 684.697M605.649 678.255L587.996 671.576M857.755 684.697L936.117 684.697M652.457 664.646L635.022 657.451M652.457 664.646L569.678 664.646M587.996 671.576L585.743 670.725L569.678 664.646M569.678 664.646L550.661 657.451M719.384 657.451L717.361 656.531L702.918 649.974M719.384 657.451L635.022 657.451M719.384 657.451L803.745 657.451M635.022 657.451L616.909 649.974M635.022 657.451L550.661 657.451M550.661 657.451L530.901 649.974M702.918 649.974L616.909 649.974M702.918 649.974L788.926 649.974M598.074 642.2L616.909 649.974M598.074 642.2L578.474 634.11M598.074 642.2L510.354 642.2M616.909 649.974L530.901 649.974M788.926 649.974L874.934 649.974M788.926 649.974L803.745 657.451M530.901 649.974L510.354 642.2M803.745 657.451L888.107 657.451M578.474 634.11L558.062 625.685M578.474 634.11L488.972 634.11M510.354 642.2L488.972 634.11M488.972 634.11L466.703 625.685M649.419 625.685L630.077 616.902M649.419 625.685L558.062 625.685M649.419 625.685L740.777 625.685M558.062 625.685L536.784 616.902M558.062 625.685L466.703 625.685M466.703 625.685L443.492 616.902M630.077 616.902L536.784 616.902M630.077 616.902L723.369 616.902M514.586 607.74L536.784 616.902M514.586 607.74L491.408 598.173M514.586 607.74L419.277 607.74M536.784 616.902L443.492 616.902M723.369 616.902L816.661 616.902M723.369 616.902L740.777 625.685M443.492 616.902L419.277 607.74M740.777 625.685L832.136 625.685M491.408 598.173L467.18 588.173M491.408 598.173L393.989 598.173M419.277 607.74L393.989 598.173M393.989 598.173L367.559 588.173M566.8 588.173L543.756 577.711M566.8 588.173L467.18 588.173M566.8 588.173L666.42 588.173M467.18 588.173L441.832 577.711M467.18 588.173L367.559 588.173M367.559 588.173L339.908 577.711M543.756 577.711L441.832 577.711M543.756 577.711L645.681 577.711M415.283 566.753L441.832 577.711M415.283 566.753L387.448 555.264M415.283 566.753L310.946 566.753M441.832 577.711L339.908 577.711M645.681 577.711L747.605 577.711M645.681 577.711L666.42 588.173M339.908 577.711L310.946 566.753M666.42 588.173L766.04 588.173M387.448 555.264L358.227 543.203M387.448 555.264L280.578 555.264M310.946 566.753L280.578 555.264M280.578 555.264L248.702 543.203M467.751 543.203L439.834 530.527M467.751 543.203L358.227 543.203M467.751 543.203L577.276 543.203M358.227 543.203L327.516 530.527M358.227 543.203L248.702 543.203M248.702 543.203L215.2 530.527M439.834 530.527L327.516 530.527M439.834 530.527L552.15 530.527M295.201 517.189L327.516 530.527M295.201 517.189L261.147 503.134M295.201 517.189L179.946 517.189M327.516 530.527L215.2 530.527M552.15 530.527L664.467 530.527M552.15 530.527L577.276 543.203M215.2 530.527L179.946 517.189M215.2 530.527L102.883 530.527M577.276 543.203L686.801 543.203M261.147 503.134L225.216 488.302M261.147 503.134L142.798 503.134M179.946 517.189L142.798 503.134M102.883 530.527L0.841154 530.527M142.798 503.134L103.599 488.302M346.832 488.302L312.313 472.63M346.832 488.302L225.216 488.302M346.832 488.302L468.449 488.302M225.216 488.302L187.244 472.63M225.216 488.302L103.599 488.302M103.599 488.302L62.1754 472.63M103.599 488.302L0.841158 488.302M312.313 472.63L187.244 472.63M312.313 472.63L437.382 472.63M147.053 456.04L187.244 472.63M147.053 456.04L104.443 438.454M147.053 456.04L18.3309 456.04M187.244 472.63L62.1754 472.63M437.382 472.63L562.45 472.63M437.382 472.63L468.449 488.302M62.1754 472.63L18.3309 456.04M62.1754 472.63L0.841159 472.63M468.449 488.302L590.066 488.302M104.443 438.454L59.1895 419.775M104.443 438.454L0.841162 438.454M18.3309 456.04L0.841161 456.04M18.3309 456.04L0.841161 449.423M195.899 419.775L152.126 399.9M195.899 419.775L59.1895 419.775M195.899 419.775L332.61 419.775M59.1895 419.775L11.0391 399.9M59.1895 419.775L0.841164 419.775M152.126 399.9L11.0391 399.9M152.126 399.9L293.214 399.9M11.0391 399.9L0.841166 395.691M11.0391 399.9L0.841166 399.9M293.214 399.9L434.301 399.9M293.214 399.9L332.61 419.775M332.61 419.775L469.32 419.775M2.19668 331.829L158.277 331.829M2.19668 331.829L0.841172 331.829M2.19668 331.829L0.841172 331.214M158.277 331.829L314.357 331.829M158.277 331.829L106.69 305.805M1092.84 684.697L1089.68 682.309L1088.62 681.505L1084.33 678.255M1092.84 684.697L1014.48 684.697M1092.84 684.697L1171.2 684.697M1024.06 690.914L1031.03 695.435L1033.32 696.917M1024.06 690.914L1015.69 685.486L1014.48 684.697M1024.06 690.914L947.07 690.914M1033.32 696.917L957.647 696.917M1033.32 696.917L1042.26 702.717M1116.65 702.717L1042.26 702.717M1116.65 702.717L1119.46 704.842L1124.06 708.325M1116.65 702.717L1191.04 702.717M1014.48 684.697L1012.03 683.109L1004.54 678.255M1014.48 684.697L936.117 684.697M947.07 690.914L957.647 696.917M947.07 690.914L936.117 684.697M957.647 696.917L965.346 701.285L967.868 702.717M1042.26 702.717L967.868 702.717M1042.26 702.717L1050.9 708.325M936.117 684.697L924.765 678.255M893.477 702.717L894.886 703.429L904.592 708.325M893.477 702.717L967.868 702.717M967.868 702.717L971.612 704.842L977.749 708.325M1084.33 678.255L1004.54 678.255M1084.33 678.255L1164.1 678.255M994.247 671.576L1004.54 678.255M994.247 671.576L983.563 664.646M994.247 671.576L912.997 671.576M1004.54 678.255L924.765 678.255M1164.1 678.255L1243.88 678.255M1164.1 678.255L1171.2 684.697M924.765 678.255L912.997 671.576M1171.2 684.697L1249.56 684.697M983.563 664.646L976.68 660.181L975.282 659.276L972.47 657.451M983.563 664.646L900.786 664.646M912.997 671.576L900.786 664.646M900.786 664.646L888.107 657.451M1056.83 657.451L1046.95 649.974M1056.83 657.451L972.47 657.451M1056.83 657.451L1141.19 657.451M972.47 657.451L960.942 649.974M972.47 657.451L888.107 657.451M888.107 657.451L874.934 649.974M1046.95 649.974L960.942 649.974M1046.95 649.974L1132.96 649.974M948.956 642.2L956.503 647.095L957.989 648.06L960.942 649.974M948.956 642.2L936.483 634.11M948.956 642.2L861.236 642.2M960.942 649.974L874.934 649.974M1132.96 649.974L1218.97 649.974M1132.96 649.974L1141.19 657.451M874.934 649.974L861.236 642.2M1141.19 657.451L1225.55 657.451M936.483 634.11L923.493 625.685M936.483 634.11L846.981 634.11M861.236 642.2L846.981 634.11M846.981 634.11L832.136 625.685M1014.85 625.685L1009.11 621.34L1007.66 620.239L1003.25 616.902M1014.85 625.685L923.493 625.685M1014.85 625.685L1106.21 625.685M923.493 625.685L909.954 616.902M923.493 625.685L832.136 625.685M832.136 625.685L816.661 616.902M1003.25 616.902L909.954 616.902M1003.25 616.902L1096.54 616.902M895.828 607.74L909.954 616.902M895.828 607.74L881.077 598.174M895.828 607.74L800.517 607.74M909.954 616.902L816.661 616.902M1096.54 616.902L1189.83 616.902M1096.54 616.902L1098.99 619.133L1106.21 625.685M816.661 616.902L800.517 607.74M1106.21 625.685L1197.57 625.685M881.077 598.174L865.661 588.173M881.077 598.174L783.66 598.174M800.517 607.74L783.66 598.174M783.66 598.174L766.04 588.173M965.281 588.173L951.454 577.711M965.281 588.173L865.661 588.173M965.281 588.173L1064.9 588.173M865.661 588.173L849.529 577.711M865.661 588.173L766.04 588.173M766.04 588.173L747.605 577.711M951.454 577.711L849.529 577.711M951.454 577.711L1053.38 577.711M832.635 566.753L849.529 577.711M832.635 566.753L814.921 555.264M832.635 566.753L728.296 566.753M849.529 577.711L747.605 577.711M1053.38 577.711L1155.3 577.711M1053.38 577.711L1064.9 588.173M747.605 577.711L728.296 566.753M1064.9 588.173L1164.52 588.173M814.921 555.264L796.327 543.203M814.921 555.264L708.052 555.264M728.296 566.753L708.052 555.264M708.052 555.264L686.801 543.203M905.85 543.203L889.099 530.528M905.85 543.203L796.327 543.203M905.85 543.203L1015.38 543.203M796.327 543.203L776.783 530.528M796.327 543.203L686.801 543.203M686.801 543.203L664.467 530.527M889.099 530.528L776.783 530.528M889.099 530.528L1001.42 530.528M756.218 517.189L776.783 530.528M756.218 517.189L734.548 503.134M756.218 517.189L640.963 517.189M776.783 530.528L664.467 530.527M1001.42 530.528L1113.73 530.528M1001.42 530.528L1015.38 543.203M664.467 530.527L640.963 517.189M1015.38 543.203L1124.9 543.203M734.548 503.134L711.682 488.302M734.548 503.134L616.198 503.134M640.963 517.189L616.198 503.134M616.198 503.134L590.066 488.302M833.299 488.302L812.588 472.63M833.299 488.302L711.682 488.302M833.299 488.302L954.917 488.302M711.682 488.302L687.519 472.63M711.682 488.302L590.066 488.302M590.066 488.302L562.45 472.63M812.588 472.63L687.519 472.63M812.588 472.63L937.656 472.63M661.944 456.04L687.519 472.63M661.944 456.04L634.827 438.454M661.944 456.04L533.22 456.04M687.519 472.63L562.45 472.63M937.656 472.63L1062.73 472.63M937.656 472.63L954.917 488.302M562.45 472.63L533.22 456.04M954.917 488.302L1076.53 488.302M634.827 438.454L606.03 419.775M634.827 438.454L502.232 438.454M533.22 456.04L502.232 438.454M502.232 438.454L469.32 419.775M742.74 419.775L716.476 399.9M742.74 419.775L606.03 419.775M742.74 419.775L879.45 419.775M606.03 419.775L575.388 399.9M606.03 419.775L469.32 419.775M469.32 419.775L434.301 399.9M716.476 399.9L575.388 399.9M716.476 399.9L857.563 399.9M542.72 378.711L575.388 399.9M542.72 378.711L507.815 356.072M542.72 378.711L396.964 378.711M575.388 399.9L434.301 399.9M857.563 399.9L998.651 399.9M857.563 399.9L879.45 419.775M434.301 399.9L396.964 378.711M879.45 419.775L1016.16 419.775M507.815 356.072L470.438 331.829M507.815 356.072L357.074 356.072M396.964 378.711L357.074 356.072M357.074 356.072L314.357 331.829M626.518 331.829L592.128 305.805M626.518 331.829L470.438 331.829M626.518 331.829L782.598 331.829M470.438 331.829L430.316 305.805M470.438 331.829L314.357 331.829M314.357 331.829L268.503 305.805M592.128 305.805L430.316 305.805M592.128 305.805L753.94 305.805M387.134 277.797L430.316 305.805M387.134 277.797L340.529 247.569M387.134 277.797L219.153 277.797M430.316 305.805L268.503 305.805M753.94 305.805L915.752 305.805M753.94 305.805L782.598 331.829M268.503 305.805L219.153 277.797M268.503 305.805L106.69 305.805M782.598 331.829L938.678 331.829M340.529 247.569L290.078 214.846M340.529 247.569L165.891 247.569M219.153 277.797L165.891 247.569M106.69 305.805L0.841174 305.805M165.891 247.569L108.231 214.846M165.891 247.569L0.841179 247.569M471.925 214.846L424.958 179.306M471.925 214.846L290.078 214.846M471.925 214.846L653.77 214.846M290.078 214.846L235.284 179.306M290.078 214.846L108.231 214.846M108.231 214.846L45.61 179.306M108.231 214.846L0.841182 214.846M424.958 179.306L235.284 179.306M424.958 179.306L614.631 179.306M175.559 140.568L235.284 179.306M175.559 140.568L110.209 98.1817M175.559 140.568L0.841188 140.568M235.284 179.306L45.61 179.306M614.631 179.306L804.305 179.306M614.631 179.306L653.77 214.846M45.61 179.306L0.841185 179.306M45.61 179.306L0.841187 153.898M653.77 214.846L835.617 214.846M110.209 98.1817L38.398 51.6042M110.209 98.1817L0.841192 98.1817M256.199 51.6042L188.245 0.182377M256.199 51.6042L38.398 51.6042M256.199 51.6042L473.998 51.6042M38.398 51.6042L0.841198 27.2437M38.398 51.6042L0.841196 51.6042M188.245 0.182377L417.371 0.182397M188.245 0.182377L0.841201 0.183305M417.371 0.182397L646.496 0.182417M417.371 0.182397L473.998 51.6042M473.998 51.6042L691.799 51.6042M1406.28 684.697L1405.93 683.904L1405.58 683.109L1405.23 682.309L1404.87 681.505L1403.8 679.074L1403.44 678.255M1406.28 684.697L1327.92 684.697M1406.28 684.697L1484.64 684.697M1332.03 690.914L1335.01 695.435L1335.99 696.917M1332.03 690.914L1329.48 687.054L1327.92 684.697M1332.03 690.914L1255.03 690.914M1335.99 696.917L1260.32 696.917M1335.99 696.917L1338.88 701.285L1339.83 702.717M1414.22 702.717L1414.53 703.429L1415.77 706.244L1416.69 708.325M1414.22 702.717L1339.83 702.717M1414.22 702.717L1488.61 702.717M1327.92 684.697L1327.4 683.904L1326.87 683.109L1326.34 682.309L1325.81 681.505L1323.66 678.255M1327.92 684.697L1249.56 684.697M1255.03 690.914L1259.02 695.435L1260.32 696.917M1255.03 690.914L1249.56 684.697M1260.32 696.917L1262.9 699.842L1264.81 702.003L1265.43 702.717M1339.83 702.717L1340.29 703.429L1341.23 704.842L1342.16 706.244L1342.62 706.941L1343.53 708.325M1339.83 702.717L1265.43 702.717M1249.56 684.697L1245.32 679.888L1243.88 678.255M1191.04 702.717L1195.69 706.941L1197.22 708.325M1191.04 702.717L1265.43 702.717M1265.43 702.717L1269.76 707.634L1270.38 708.325M1403.44 678.255L1323.66 678.255M1403.44 678.255L1483.22 678.255M1319.25 671.576L1323.66 678.255M1319.25 671.576L1314.67 664.646M1319.25 671.576L1238 671.576M1323.66 678.255L1243.88 678.255M1483.22 678.255L1563 678.255M1483.22 678.255L1484.64 684.697M1243.88 678.255L1238 671.576M1484.64 684.697L1563 684.697M1314.67 664.646L1313.5 662.873L1311.72 660.181L1309.92 657.451M1314.67 664.646L1231.89 664.646M1238 671.576L1237.25 670.725L1231.89 664.646M1231.89 664.646L1231.11 663.762L1230.33 662.873L1229.54 661.979L1225.55 657.451M1394.28 657.451L1390.98 649.974M1394.28 657.451L1309.92 657.451M1394.28 657.451L1478.64 657.451M1309.92 657.451L1304.98 649.974M1309.92 657.451L1225.55 657.451M1225.55 657.451L1220.64 651.871L1219.8 650.925L1218.97 649.974M1390.98 649.974L1304.98 649.974M1390.98 649.974L1476.99 649.974M1299.84 642.2L1299.18 641.206L1298.52 640.208L1297.86 639.204L1294.49 634.11M1299.84 642.2L1302.43 646.126L1303.07 647.095L1303.71 648.06L1304.98 649.974M1299.84 642.2L1212.12 642.2M1304.98 649.974L1218.97 649.974M1476.99 649.974L1563 649.974M1476.99 649.974L1478.64 657.451M1218.97 649.974L1212.12 642.2M1478.64 657.451L1563 657.451M1294.49 634.11L1289.63 626.757L1288.93 625.685M1294.49 634.11L1204.99 634.11M1212.12 642.2L1210.36 640.208L1204.99 634.11M1204.99 634.11L1202.24 630.991L1197.57 625.685M1380.28 625.685L1378.37 621.34L1377.89 620.239L1376.41 616.902M1380.28 625.685L1288.93 625.685M1380.28 625.685L1471.64 625.685M1288.93 625.685L1283.12 616.902M1288.93 625.685L1197.57 625.685M1197.57 625.685L1189.83 616.902M1376.41 616.902L1283.12 616.902M1376.41 616.902L1469.71 616.902M1277.07 607.74L1283.12 616.902M1277.07 607.74L1270.75 598.174M1277.07 607.74L1181.76 607.74M1283.12 616.902L1189.83 616.902M1469.71 616.902L1563 616.902M1469.71 616.902L1470.2 619.133L1471.17 623.524L1471.64 625.685M1189.83 616.902L1181.76 607.74M1471.64 625.685L1563 625.685M1270.75 598.174L1265.82 590.715L1264.14 588.173M1270.75 598.174L1173.33 598.174M1181.76 607.74L1173.33 598.174M1173.33 598.174L1168.97 593.229L1164.52 588.173M1363.76 588.173L1359.15 577.711M1363.76 588.173L1264.14 588.173M1363.76 588.173L1463.38 588.173M1264.14 588.173L1257.23 577.711M1264.14 588.173L1164.52 588.173M1164.52 588.173L1155.3 577.711M1359.15 577.711L1257.23 577.711M1359.15 577.711L1461.08 577.711M1249.99 566.753L1251.83 569.541L1257.23 577.711M1249.99 566.753L1242.39 555.264M1249.99 566.753L1145.65 566.753M1257.23 577.711L1155.3 577.711M1461.08 577.711L1563 577.711M1461.08 577.711L1463.38 588.173M1155.3 577.711L1145.65 566.753M1463.38 588.173L1563 588.173M1242.39 555.264L1234.43 543.203M1242.39 555.264L1135.53 555.264M1145.65 566.753L1135.53 555.264M1135.53 555.264L1124.9 543.203M1343.95 543.203L1338.37 530.528M1343.95 543.203L1234.43 543.203M1343.95 543.203L1453.47 543.203M1234.43 543.203L1226.05 530.528M1234.43 543.203L1124.9 543.203M1124.9 543.203L1113.73 530.528M1338.37 530.528L1226.05 530.528M1338.37 530.528L1450.68 530.528M1217.24 517.189L1226.05 530.528M1217.24 517.189L1207.95 503.134M1217.24 517.189L1101.98 517.189M1226.05 530.528L1113.73 530.528M1450.68 530.528L1563 530.528M1450.68 530.528L1453.13 541.653L1453.47 543.203M1113.73 530.528L1101.98 517.189M1453.47 543.203L1563 543.203M1207.95 503.134L1198.15 488.302M1207.95 503.134L1089.6 503.134M1101.98 517.189L1092.76 506.717L1089.6 503.134M1089.6 503.134L1076.53 488.302M1319.77 488.302L1312.86 472.63M1319.77 488.302L1198.15 488.302M1319.77 488.302L1441.38 488.302M1198.15 488.302L1187.79 472.63M1198.15 488.302L1076.53 488.302M1076.53 488.302L1062.73 472.63M1312.86 472.63L1187.79 472.63M1312.86 472.63L1437.93 472.63M1176.83 456.04L1187.79 472.63M1176.83 456.04L1165.21 438.454M1176.83 456.04L1048.11 456.04M1187.79 472.63L1062.73 472.63M1437.93 472.63L1563 472.63M1437.93 472.63L1441.38 488.302M1062.73 472.63L1048.11 456.04M1441.38 488.302L1563 488.302M1165.21 438.454L1152.87 419.775M1165.21 438.454L1032.62 438.454M1048.11 456.04L1032.62 438.454M1032.62 438.454L1016.16 419.775M1289.58 419.775L1280.83 399.9M1289.58 419.775L1152.87 419.775M1289.58 419.775L1426.29 419.775M1152.87 419.775L1139.74 399.9M1152.87 419.775L1016.16 419.775M1016.16 419.775L998.651 399.9M1280.83 399.9L1139.74 399.9M1280.83 399.9L1421.91 399.9M1125.74 378.711L1139.74 399.9M1125.74 378.711L1110.78 356.072M1125.74 378.711L979.983 378.711M1139.74 399.9L998.651 399.9M1421.91 399.9L1563 399.9M1421.91 399.9L1426.29 419.775M998.651 399.9L979.983 378.711M1426.29 419.775L1563 419.775M1110.78 356.072L1094.76 331.829M1110.78 356.072L960.038 356.072M979.983 378.711L960.038 356.072M960.038 356.072L938.678 331.829M1250.84 331.829L1239.38 305.805M1250.84 331.829L1094.76 331.829M1250.84 331.829L1406.92 331.829M1094.76 331.829L1077.56 305.805M1094.76 331.829L938.678 331.829M938.678 331.829L915.752 305.805M1239.38 305.805L1077.56 305.805M1239.38 305.805L1401.19 305.805M1059.06 277.797L1077.56 305.805M1059.06 277.797L1039.08 247.569M1059.06 277.797L891.076 277.797M1077.56 305.805L915.752 305.805M1401.19 305.805L1563 305.805M1401.19 305.805L1406.92 331.829M915.752 305.805L891.076 277.797M1406.92 331.829L1563 331.829M1039.08 247.569L1017.46 214.846M1039.08 247.569L864.445 247.569M891.076 277.797L864.445 247.569M864.445 247.569L835.617 214.846M1199.31 214.846L1183.65 179.306M1199.31 214.846L1017.46 214.846M1199.31 214.846L1381.15 214.846M1017.46 214.846L993.979 179.306M1017.46 214.846L835.617 214.846M835.617 214.846L804.305 179.306M1183.65 179.306L993.979 179.306M1183.65 179.306L1373.33 179.306M968.382 140.568L993.979 179.306M968.382 140.568L940.376 98.1818M968.382 140.568L770.177 140.568M993.979 179.306L804.305 179.306M1373.33 179.306L1563 179.306M1373.33 179.306L1381.15 214.846M804.305 179.306L770.177 140.568M1381.15 214.846L1563 214.846M940.376 98.1818L909.599 51.6043M940.376 98.1818L732.833 98.1818M770.177 140.568L732.833 98.1818M732.833 98.1818L691.799 51.6042M1127.4 51.6043L1104.75 0.182457M1127.4 51.6043L909.599 51.6043M1127.4 51.6043L1345.2 51.6043M909.599 51.6043L875.622 0.182437M909.599 51.6043L691.799 51.6042M691.799 51.6042L646.496 0.182417M875.622 0.182437L1104.75 0.182457M875.622 0.182437L646.496 0.182417M1104.75 0.182457L1333.87 0.182477M1333.87 0.182477L1563 0.182497M1333.87 0.182477L1345.2 51.6043M1345.2 51.6043L1563 51.6043M1719.72 684.697L1720.07 683.904L1720.42 683.109L1720.77 682.309L1721.13 681.505L1721.84 679.888L1722.2 679.074L1722.56 678.255M1719.72 684.697L1641.36 684.697M1719.72 684.697L1798.08 684.697M1639.99 690.914L1638.67 696.917M1639.99 690.914L1641.36 684.697M1639.99 690.914L1563 690.914M1638.67 696.917L1638.51 697.653L1638.34 698.386L1638.19 699.115L1637.39 702.717M1638.67 696.917L1563 696.917M1711.78 702.717L1711.47 703.429L1710.23 706.244L1709.31 708.325M1711.78 702.717L1637.39 702.717M1711.78 702.717L1786.17 702.717M1641.36 684.697L1641.54 683.904L1641.71 683.109L1641.89 682.309L1642.78 678.255M1641.36 684.697L1563 684.697M1563 690.914L1563 696.917M1563 690.914L1563 684.697M1563 696.917L1563 702.717M1637.39 702.717L1563 702.717M1637.39 702.717L1636.92 704.842L1636.77 705.545L1636.16 708.325M1563 684.697L1563 678.255M1488.61 702.717L1489.08 704.842L1489.23 705.545L1489.38 706.244L1489.54 706.941L1489.69 707.634L1489.84 708.325M1488.61 702.717L1563 702.717M1563 702.717L1563 708.325M1722.56 678.255L1642.78 678.255M1722.56 678.255L1802.34 678.255M1644.25 671.576L1644.44 670.725L1644.63 669.868L1645.78 664.646M1644.25 671.576L1642.78 678.255M1644.25 671.576L1563 671.576M1642.78 678.255L1563 678.255M1802.34 678.255L1882.12 678.255M1802.34 678.255L1801.26 679.888L1800.72 680.698L1800.19 681.505L1799.66 682.309L1799.13 683.109L1798.6 683.904L1798.08 684.697M1563 678.255L1563 671.576M1798.08 684.697L1876.44 684.697M1645.78 664.646L1647.36 657.451M1645.78 664.646L1563 664.646M1563 671.576L1563 664.646M1563 664.646L1563 657.451M1731.72 657.451L1735.02 649.974M1731.72 657.451L1647.36 657.451M1731.72 657.451L1816.08 657.451M1647.36 657.451L1649.01 649.974M1647.36 657.451L1563 657.451M1563 657.451L1563 649.974M1735.02 649.974L1649.01 649.974M1735.02 649.974L1821.02 649.974M1650.72 642.2L1649.01 649.974M1650.72 642.2L1652.5 634.11M1650.72 642.2L1563 642.2M1649.01 649.974L1563 649.974M1821.02 649.974L1907.03 649.974M1821.02 649.974L1816.08 657.451M1563 649.974L1563 642.2M1816.08 657.451L1900.45 657.451M1652.5 634.11L1653.19 630.991L1653.89 627.824L1654.36 625.685M1652.5 634.11L1563 634.11M1563 642.2L1563 634.11M1563 634.11L1563 625.685M1745.72 625.685L1747.63 621.34L1748.11 620.239L1749.59 616.902M1745.72 625.685L1654.36 625.685M1745.72 625.685L1837.07 625.685M1654.36 625.685L1654.83 623.524L1655.8 619.133L1656.29 616.902M1654.36 625.685L1563 625.685M1563 625.685L1563 616.902M1749.59 616.902L1656.29 616.902M1749.59 616.902L1842.88 616.902M1658.31 607.74L1658.05 608.907L1656.29 616.902M1658.31 607.74L1660.42 598.174M1658.31 607.74L1563 607.74M1656.29 616.902L1563 616.902M1842.88 616.902L1936.17 616.902M1842.88 616.902L1837.07 625.685M1563 616.902L1563 607.74M1837.07 625.685L1928.43 625.685M1660.42 598.174L1662.62 588.173M1660.42 598.174L1563 598.174M1563 607.74L1563 598.174M1563 598.174L1563 588.173M1762.24 588.173L1766.85 577.711M1762.24 588.173L1662.62 588.173M1762.24 588.173L1861.86 588.173M1662.62 588.173L1664.92 577.711M1662.62 588.173L1563 588.173M1563 588.173L1563 577.711M1766.85 577.711L1664.92 577.711M1766.85 577.711L1868.77 577.711M1667.34 566.753L1664.92 577.711M1667.34 566.753L1669.87 555.264M1667.34 566.753L1563 566.753M1664.92 577.711L1563 577.711M1868.77 577.711L1970.7 577.711M1868.77 577.711L1861.86 588.173M1563 577.711L1563 566.753M1861.86 588.173L1961.48 588.173M1669.87 555.264L1672.53 543.203M1669.87 555.264L1563 555.264M1563 566.753L1563 555.264M1563 555.264L1563 543.203M1782.05 543.203L1787.63 530.528M1782.05 543.203L1672.53 543.203M1782.05 543.203L1891.57 543.203M1672.53 543.203L1675.32 530.528M1672.53 543.203L1563 543.203M1563 543.203L1563 530.528M1787.63 530.528L1675.32 530.528M1787.63 530.528L1899.95 530.528M1678.25 517.189L1675.32 530.528M1678.25 517.189L1681.35 503.134M1678.25 517.189L1563 517.189M1675.32 530.528L1563 530.528M1899.95 530.528L2012.27 530.528M1899.95 530.528L1891.57 543.203M1563 530.528L1563 517.189M1891.57 543.203L2001.1 543.203M1681.35 503.134L1684.62 488.302M1681.35 503.134L1563 503.134M1563 517.189L1563 503.134M1563 503.134L1563 488.302M1806.23 488.302L1813.14 472.63M1806.23 488.302L1684.62 488.302M1806.23 488.302L1927.85 488.302M1684.62 488.302L1688.07 472.63M1684.62 488.302L1563 488.302M1563 488.302L1563 472.63M1813.14 472.63L1688.07 472.63M1813.14 472.63L1938.21 472.63M1691.72 456.04L1688.07 472.63M1691.72 456.04L1695.6 438.454M1691.72 456.04L1563 456.04M1688.07 472.63L1563 472.63M1938.21 472.63L2063.27 472.63M1938.21 472.63L1927.85 488.302M1563 472.63L1563 456.04M1927.85 488.302L2049.47 488.302M1695.6 438.454L1699.71 419.775M1695.6 438.454L1563 438.454M1563 456.04L1563 438.454M1563 438.454L1563 419.775M1836.42 419.775L1845.17 399.9M1836.42 419.775L1699.71 419.775M1836.42 419.775L1973.13 419.775M1699.71 419.775L1704.09 399.9M1699.71 419.775L1563 419.775M1563 419.775L1563 399.9M1845.17 399.9L1704.09 399.9M1845.17 399.9L1986.26 399.9M1708.75 378.711L1704.09 399.9M1708.75 378.711L1713.74 356.072M1708.75 378.711L1563 378.711M1704.09 399.9L1563 399.9M1986.26 399.9L2127.35 399.9M1986.26 399.9L1973.13 419.775M1563 399.9L1563 378.711M1973.13 419.775L2109.84 419.775M1713.74 356.072L1719.08 331.829M1713.74 356.072L1563 356.072M1563 378.711L1563 356.072M1563 356.072L1563 331.829M1875.16 331.829L1886.62 305.805M1875.16 331.829L1719.08 331.829M1875.16 331.829L2031.24 331.829M1719.08 331.829L1724.81 305.805M1719.08 331.829L1563 331.829M1563 331.829L1563 305.805M1886.62 305.805L1724.81 305.805M1886.62 305.805L2048.44 305.805M1730.98 277.797L1724.81 305.805M1730.98 277.797L1737.64 247.569M1730.98 277.797L1563 277.797M1724.81 305.805L1563 305.805M2048.44 305.805L2210.25 305.805M2048.44 305.805L2031.24 331.829M1563 305.805L1563 277.797M2031.24 331.829L2187.32 331.829M1737.64 247.569L1744.85 214.846M1737.64 247.569L1563 247.569M1563 277.797L1563 247.569M1563 247.569L1563 214.846M1926.69 214.846L1942.35 179.306M1926.69 214.846L1744.85 214.846M1926.69 214.846L2108.54 214.846M1744.85 214.846L1752.67 179.306M1744.85 214.846L1563 214.846M1563 214.846L1563 179.306M1942.35 179.306L1752.67 179.306M1942.35 179.306L2132.02 179.306M1761.21 140.568L1752.67 179.306M1761.21 140.568L1770.54 98.1819M1761.21 140.568L1563 140.568M1752.67 179.306L1563 179.306M2132.02 179.306L2321.69 179.306M2132.02 179.306L2108.54 214.846M1563 179.306L1563 140.568M2108.54 214.846L2290.38 214.846M1770.54 98.1819L1780.8 51.6043M1770.54 98.1819L1563 98.1819M1563 140.568L1563 98.1819M1563 98.1819L1563 51.6043M1998.6 51.6044L2021.25 0.182537M1998.6 51.6044L1780.8 51.6043M1998.6 51.6044L2216.4 51.6044M1780.8 51.6043L1792.13 0.182517M1780.8 51.6043L1563 51.6043M1563 51.6043L1563 0.182497M1792.13 0.182517L2021.25 0.182537M1792.13 0.182517L1563 0.182497M2021.25 0.182537L2250.38 0.182557M2250.38 0.182557L2479.5 0.182577M2250.38 0.182557L2216.4 51.6044M2216.4 51.6044L2434.2 51.6044M2033.16 684.697L2037.38 681.505L2041.67 678.255M2033.16 684.697L1954.8 684.697M2033.16 684.697L2111.52 684.697M1947.96 690.914L1941.34 696.917M1947.96 690.914L1954.8 684.697M1947.96 690.914L1870.96 690.914M1941.34 696.917L1865.68 696.917M1941.34 696.917L1936.53 701.286L1934.96 702.717M2009.35 702.717L1934.96 702.717M2009.35 702.717L2006.54 704.842L2001.94 708.325M2009.35 702.717L2083.74 702.717M1954.8 684.697L1961.9 678.255M1954.8 684.697L1876.44 684.697M1870.96 690.914L1865.68 696.917M1870.96 690.914L1876.44 684.697M1865.68 696.917L1863.1 699.842L1861.19 702.003L1860.57 702.717M1934.96 702.717L1860.57 702.717M1934.96 702.717L1930.31 706.941L1928.78 708.325M1876.44 684.697L1880.68 679.888L1882.12 678.255M1786.17 702.717L1785.71 703.429L1784.77 704.842L1783.38 706.941L1782.47 708.325M1786.17 702.717L1860.57 702.717M1860.57 702.717L1859.94 703.429L1858.69 704.842L1855.63 708.325M2041.67 678.255L1961.9 678.255M2041.67 678.255L2121.46 678.255M1969.25 671.576L1968.32 672.424L1967.39 673.27L1963.71 676.609L1961.9 678.255M1969.25 671.576L1974.95 666.404L1976.88 664.646M1969.25 671.576L1888 671.576M1961.9 678.255L1882.12 678.255M2121.46 678.255L2201.23 678.255M2121.46 678.255L2113.97 683.109L2111.52 684.697M1882.12 678.255L1888 671.576M2111.52 684.697L2189.88 684.697M1976.88 664.646L1977.86 663.762L1978.84 662.873L1981.8 660.181L1982.8 659.276L1984.81 657.451M1976.88 664.646L1894.11 664.646M1888 671.576L1888.75 670.725L1894.11 664.646M1894.11 664.646L1894.89 663.762L1895.67 662.873L1896.46 661.979L1900.45 657.451M2069.17 657.451L2079.05 649.974M2069.17 657.451L1984.81 657.451M2069.17 657.451L2153.53 657.451M1984.81 657.451L1993.04 649.974M1984.81 657.451L1900.45 657.451M1900.45 657.451L1907.03 649.974M2079.05 649.974L1993.04 649.974M2079.05 649.974L2165.06 649.974M2001.6 642.2L1993.04 649.974M2001.6 642.2L2010.51 634.11M2001.6 642.2L1913.88 642.2M1993.04 649.974L1907.03 649.974M2165.06 649.974L2251.07 649.974M2165.06 649.974L2153.53 657.451M1907.03 649.974L1913.88 642.2M2153.53 657.451L2237.89 657.451M2010.51 634.11L2019.79 625.685M2010.51 634.11L1921.01 634.11M1913.88 642.2L1915.64 640.208L1921.01 634.11M1921.01 634.11L1923.76 630.991L1926.55 627.824L1928.43 625.685M2111.15 625.685L2116.89 621.34L2122.75 616.902M2111.15 625.685L2019.79 625.685M2111.15 625.685L2202.51 625.685M2019.79 625.685L2029.46 616.902M2019.79 625.685L1928.43 625.685M1928.43 625.685L1936.17 616.902M2122.75 616.902L2029.46 616.902M2122.75 616.902L2216.05 616.902M2039.55 607.74L2029.46 616.902M2039.55 607.74L2050.09 598.174M2039.55 607.74L1944.24 607.74M2029.46 616.902L1936.17 616.902M2216.05 616.902L2309.34 616.902M2216.05 616.902L2202.51 625.685M1936.17 616.902L1944.24 607.74M2202.51 625.685L2293.86 625.685M2050.09 598.174L2052.8 595.715L2061.1 588.173M2050.09 598.174L1952.67 598.174M1944.24 607.74L1952.67 598.174M1952.67 598.174L1953.75 596.948L1957.03 593.229L1961.48 588.173M2160.72 588.173L2174.55 577.711M2160.72 588.173L2061.1 588.173M2160.72 588.173L2260.34 588.173M2061.1 588.173L2072.62 577.711M2061.1 588.173L1961.48 588.173M1961.48 588.173L1970.7 577.711M2174.55 577.711L2072.62 577.711M2174.55 577.711L2276.47 577.711M2084.69 566.753L2077.08 573.661L2072.62 577.711M2084.69 566.753L2097.34 555.264M2084.69 566.753L1980.35 566.753M2072.62 577.711L1970.7 577.711M2276.47 577.711L2378.39 577.711M2276.47 577.711L2260.34 588.173M1970.7 577.711L1980.35 566.753M2260.34 588.173L2359.96 588.174M2097.34 555.264L2110.62 543.203M2097.34 555.264L1990.47 555.264M1980.35 566.753L1990.47 555.264M1990.47 555.264L2001.1 543.203M2220.15 543.203L2236.9 530.528M2220.15 543.203L2110.62 543.203M2220.15 543.203L2329.67 543.203M2110.62 543.203L2124.58 530.528M2110.62 543.203L2001.1 543.203M2001.1 543.203L2012.27 530.528M2236.9 530.528L2124.58 530.528M2236.9 530.528L2349.22 530.528M2139.27 517.189L2124.58 530.528M2139.27 517.189L2154.75 503.134M2139.27 517.189L2024.02 517.189M2124.58 530.528L2012.27 530.528M2349.22 530.528L2461.53 530.528M2349.22 530.528L2329.67 543.203M2012.27 530.528L2024.02 517.189M2329.67 543.203L2439.2 543.203M2154.75 503.134L2171.08 488.302M2154.75 503.134L2036.4 503.134M2024.02 517.189L2036.4 503.134M2036.4 503.134L2049.47 488.302M2292.7 488.302L2313.41 472.63M2292.7 488.302L2171.08 488.302M2292.7 488.302L2414.32 488.302M2171.08 488.302L2188.34 472.63M2171.08 488.302L2049.47 488.302M2049.47 488.302L2063.27 472.63M2313.41 472.63L2188.34 472.63M2313.41 472.63L2438.48 472.63M2206.61 456.04L2188.34 472.63M2206.61 456.04L2225.98 438.454M2206.61 456.04L2077.89 456.04M2188.34 472.63L2063.27 472.63M2438.48 472.63L2563.55 472.63M2438.48 472.63L2414.32 488.302M2063.27 472.63L2077.89 456.04M2414.32 488.302L2535.93 488.302M2225.98 438.454L2246.55 419.775M2225.98 438.454L2093.38 438.454M2077.89 456.04L2093.38 438.454M2093.38 438.454L2109.84 419.775M2383.26 419.775L2409.52 399.9M2383.26 419.775L2246.55 419.775M2383.26 419.775L2519.97 419.775M2246.55 419.775L2268.44 399.9M2246.55 419.775L2109.84 419.775M2109.84 419.775L2127.35 399.9M2409.52 399.9L2268.44 399.9M2409.52 399.9L2550.61 399.9M2291.77 378.711L2268.44 399.9M2291.77 378.711L2316.7 356.072M2291.77 378.711L2146.02 378.711M2268.44 399.9L2127.35 399.9M2550.61 399.9L2691.7 399.9M2550.61 399.9L2519.97 419.775M2127.35 399.9L2146.02 378.711M2519.97 419.775L2656.68 419.775M2316.7 356.072L2343.4 331.829M2316.7 356.072L2165.96 356.072M2146.02 378.711L2165.96 356.072M2165.96 356.072L2187.32 331.829M2499.48 331.829L2533.87 305.805M2499.48 331.829L2343.4 331.829M2499.48 331.829L2655.56 331.829M2343.4 331.829L2372.06 305.805M2343.4 331.829L2187.32 331.829M2187.32 331.829L2210.25 305.805M2533.87 305.805L2372.06 305.805M2533.87 305.805L2695.68 305.805M2402.9 277.798L2372.06 305.805M2402.9 277.798L2436.19 247.569M2402.9 277.798L2234.92 277.798M2372.06 305.805L2210.25 305.805M2695.68 305.805L2857.5 305.805M2695.68 305.805L2655.56 331.829M2210.25 305.805L2234.92 277.798M2655.56 331.829L2811.64 331.829M2436.19 247.569L2472.23 214.846M2436.19 247.569L2261.56 247.569M2234.92 277.798L2261.56 247.569M2261.56 247.569L2290.38 214.846M2654.08 214.846L2701.04 179.306M2654.08 214.846L2472.23 214.846M2654.08 214.846L2835.92 214.846M2472.23 214.846L2511.37 179.306M2472.23 214.846L2290.38 214.846M2290.38 214.846L2321.69 179.306M2701.04 179.306L2511.37 179.306M2701.04 179.306L2890.72 179.306M2554.03 140.568L2511.37 179.306M2554.03 140.568L2600.71 98.182M2554.03 140.568L2355.82 140.568M2511.37 179.306L2321.69 179.306M2890.72 179.306L3080.39 179.306M2890.72 179.306L2835.92 214.846M2321.69 179.306L2355.82 140.568M2835.92 214.846L3017.77 214.846M2600.71 98.182L2652 51.6044M2600.71 98.182L2393.17 98.1819M2355.82 140.568L2393.17 98.1819M2393.17 98.1819L2434.2 51.6044M2869.8 51.6044L2937.76 0.182617M2869.8 51.6044L2652 51.6044M2869.8 51.6044L3087.6 51.6045M2652 51.6044L2708.63 0.182597M2652 51.6044L2434.2 51.6044M2434.2 51.6044L2479.5 0.182577M2708.63 0.182597L2937.76 0.182617M2708.63 0.182597L2479.5 0.182577M2937.76 0.182617L3125.16 0.183578M3087.6 51.6045L3125.16 27.244M3087.6 51.6045L3125.16 51.6045M2346.6 684.697L2360.79 678.255M2346.6 684.697L2268.24 684.697M2346.6 684.697L2424.96 684.697M2255.92 690.914L2244.02 696.917M2255.92 690.914L2268.24 684.697M2255.92 690.914L2178.93 690.914M2244.02 696.917L2168.35 696.917M2244.02 696.917L2232.52 702.717M2306.92 702.717L2232.52 702.717M2306.92 702.717L2302.23 704.842L2294.56 708.325M2306.92 702.717L2381.31 702.717M2268.24 684.697L2281.01 678.255M2268.24 684.697L2189.88 684.697M2178.93 690.914L2168.35 696.917M2178.93 690.914L2189.88 684.697M2168.35 696.917L2160.65 701.286L2158.13 702.717M2232.52 702.717L2231.11 703.429L2221.41 708.325M2232.52 702.717L2158.13 702.717M2189.88 684.697L2201.23 678.255M2083.74 702.717L2075.1 708.325M2083.74 702.717L2158.13 702.717M2158.13 702.717L2154.39 704.842L2148.25 708.325M2360.79 678.255L2281.01 678.255M2360.79 678.255L2440.57 678.255M2294.25 671.576L2281.01 678.255M2294.25 671.576L2307.99 664.646M2294.25 671.576L2213 671.576M2281.01 678.255L2201.23 678.255M2440.57 678.255L2520.35 678.255M2440.57 678.255L2424.96 684.697M2201.23 678.255L2213 671.576M2424.96 684.697L2503.33 684.697M2307.99 664.646L2311.51 662.873L2322.25 657.451M2307.99 664.646L2225.21 664.646M2213 671.576L2225.21 664.646M2225.21 664.646L2237.89 657.451M2406.62 657.451L2408.64 656.532L2423.08 649.974M2406.62 657.451L2322.25 657.451M2406.62 657.451L2490.98 657.451M2322.25 657.451L2337.07 649.974M2322.25 657.451L2237.89 657.451M2237.89 657.451L2239.51 656.532L2251.07 649.974M2423.08 649.974L2337.07 649.974M2423.08 649.974L2509.09 649.974M2352.48 642.2L2337.07 649.974M2352.48 642.2L2368.52 634.11M2352.48 642.2L2264.76 642.2M2337.07 649.974L2251.07 649.974M2509.09 649.974L2595.1 649.974M2509.09 649.974L2490.98 657.451M2251.07 649.974L2264.76 642.2M2490.98 657.451L2575.34 657.451M2368.52 634.11L2385.22 625.685M2368.52 634.11L2279.02 634.11M2264.76 642.2L2279.02 634.11M2279.02 634.11L2293.86 625.685M2476.58 625.685L2495.92 616.902M2476.58 625.685L2385.22 625.685M2476.58 625.685L2567.94 625.685M2385.22 625.685L2402.63 616.902M2385.22 625.685L2293.86 625.685M2293.86 625.685L2309.34 616.902M2495.92 616.902L2402.63 616.902M2495.92 616.902L2589.22 616.903M2420.79 607.74L2402.63 616.902M2420.79 607.74L2439.76 598.174M2420.79 607.74L2325.48 607.74M2402.63 616.902L2309.34 616.902M2589.22 616.903L2682.51 616.903M2589.22 616.903L2567.94 625.685M2309.34 616.902L2325.48 607.74M2567.94 625.685L2659.3 625.685M2439.76 598.174L2459.58 588.174M2439.76 598.174L2342.34 598.174M2325.48 607.74L2342.34 598.174M2342.34 598.174L2359.96 588.174M2559.2 588.174L2582.24 577.711M2559.2 588.174L2459.58 588.174M2559.2 588.174L2658.82 588.174M2459.58 588.174L2480.32 577.711M2459.58 588.174L2359.96 588.174M2359.96 588.174L2378.39 577.711M2582.24 577.711L2480.32 577.711M2582.24 577.711L2684.17 577.711M2502.04 566.753L2480.32 577.711M2502.04 566.753L2524.82 555.264M2502.04 566.753L2397.7 566.753M2480.32 577.711L2378.39 577.711M2684.17 577.711L2786.09 577.711M2684.17 577.711L2658.82 588.174M2378.39 577.711L2397.7 566.753M2658.82 588.174L2758.44 588.174M2524.82 555.264L2548.72 543.203M2524.82 555.264L2417.95 555.264M2397.7 566.753L2417.95 555.264M2417.95 555.264L2439.2 543.203M2658.25 543.203L2686.17 530.528M2658.25 543.203L2548.72 543.203M2658.25 543.203L2767.77 543.203M2548.72 543.203L2573.85 530.528M2548.72 543.203L2439.2 543.203M2439.2 543.203L2461.53 530.528M2686.17 530.528L2573.85 530.528M2686.17 530.528L2798.48 530.528M2600.29 517.189L2573.85 530.528M2600.29 517.189L2628.15 503.134M2600.29 517.189L2485.04 517.189M2573.85 530.528L2461.53 530.528M2798.48 530.528L2910.8 530.528M2798.48 530.528L2767.77 543.203M2461.53 530.528L2485.04 517.189M2767.77 543.203L2877.3 543.203M2628.15 503.134L2657.55 488.302M2628.15 503.134L2509.8 503.134M2485.04 517.189L2509.8 503.134M2509.8 503.134L2535.93 488.302M2779.17 488.302L2813.69 472.63M2779.17 488.302L2657.55 488.302M2779.17 488.302L2900.78 488.302M2657.55 488.302L2688.62 472.63M2657.55 488.302L2535.93 488.302M2535.93 488.302L2563.55 472.63M2813.69 472.63L2688.62 472.63M2813.69 472.63L2938.76 472.63M2721.5 456.041L2688.62 472.63M2721.5 456.041L2756.36 438.454M2721.5 456.041L2592.78 456.041M2688.62 472.63L2563.55 472.63M2938.76 472.63L3063.82 472.63M2938.76 472.63L2900.78 488.302M2563.55 472.63L2592.78 456.041M2900.78 488.302L3022.4 488.302M2756.36 438.454L2793.39 419.775M2756.36 438.454L2623.77 438.454M2592.78 456.041L2623.77 438.454M2623.77 438.454L2656.68 419.775M2930.1 419.775L2973.87 399.9M2930.1 419.775L2793.39 419.775M2930.1 419.775L3066.81 419.775M2793.39 419.775L2832.79 399.9M2793.39 419.775L2656.68 419.775M2656.68 419.775L2691.7 399.9M2973.87 399.9L2832.79 399.9M2973.87 399.9L3114.96 399.9M2874.79 378.711L2832.79 399.9M2874.79 378.711L2919.67 356.072M2874.79 378.711L2729.04 378.711M2832.79 399.9L2691.7 399.9M3114.96 399.9L3066.81 419.775M3114.96 399.9L3125.16 399.9M3114.96 399.9L3125.16 395.692M2691.7 399.9L2729.04 378.711M3066.81 419.775L3125.16 419.775M2919.67 356.072L2967.72 331.829M2919.67 356.072L2768.93 356.072M2729.04 378.711L2768.93 356.072M2768.93 356.072L2811.64 331.829M3123.8 331.829L2967.72 331.829M3123.8 331.829L3125.16 331.829M3123.8 331.829L3125.16 331.214M2967.72 331.829L3019.31 305.805M2967.72 331.829L2811.64 331.829M2811.64 331.829L2857.5 305.805M3074.83 277.798L3019.31 305.805M3074.83 277.798L2906.85 277.798M3074.83 277.798L3125.16 277.798M3074.83 277.798L3125.16 252.407M3019.31 305.805L2857.5 305.805M3019.31 305.805L3125.16 305.805M2857.5 305.805L2906.85 277.798M2906.85 277.798L2960.11 247.569M2960.11 247.569L3017.77 214.846M2960.11 247.569L3125.16 247.569M3017.77 214.846L3080.39 179.306M3017.77 214.846L3125.16 214.846M3080.39 179.306L3125.16 179.306M3080.39 179.306L3125.16 153.898M2660.05 684.697L2679.91 678.255M2660.05 684.697L2581.69 684.697M2660.05 684.697L2738.41 684.697M2563.89 690.914L2546.7 696.917M2563.89 690.914L2581.69 684.697M2563.89 690.914L2486.89 690.914M2546.7 696.917L2471.03 696.917M2546.7 696.917L2530.09 702.717M2604.48 702.717L2530.09 702.717M2604.48 702.717L2587.19 708.325M2604.48 702.717L2678.87 702.717M2581.69 684.697L2600.13 678.255M2581.69 684.697L2503.33 684.697M2486.89 690.914L2471.03 696.917M2486.89 690.914L2503.33 684.697M2471.03 696.917L2455.7 702.717M2530.09 702.717L2528.05 703.429L2514.03 708.325M2530.09 702.717L2455.7 702.717M2503.33 684.697L2520.35 678.255M2381.31 702.717L2367.72 708.325M2381.31 702.717L2455.7 702.717M2455.7 702.717L2453.82 703.429L2440.88 708.325M2679.91 678.255L2600.13 678.255M2679.91 678.255L2759.69 678.255M2619.26 671.576L2600.13 678.255M2619.26 671.576L2639.1 664.646M2619.26 671.576L2538 671.576M2600.13 678.255L2520.35 678.255M2759.69 678.255L2839.47 678.255M2759.69 678.255L2738.41 684.697M2520.35 678.255L2538 671.576M2738.41 684.697L2816.77 684.697M2639.1 664.646L2659.7 657.451M2639.1 664.646L2556.32 664.646M2538 671.576L2540.26 670.725L2556.32 664.646M2556.32 664.646L2575.34 657.451M2744.06 657.451L2767.12 649.974M2744.06 657.451L2659.7 657.451M2744.06 657.451L2828.42 657.451M2659.7 657.451L2681.11 649.974M2659.7 657.451L2575.34 657.451M2575.34 657.451L2595.1 649.974M2767.12 649.974L2681.11 649.974M2767.12 649.974L2853.12 649.974M2703.37 642.2L2681.11 649.974M2703.37 642.2L2726.53 634.11M2703.37 642.2L2615.65 642.2M2681.11 649.974L2595.1 649.974M2853.12 649.974L2939.13 649.974M2853.12 649.974L2828.42 657.451M2595.1 649.974L2615.65 642.2M2828.42 657.451L2912.78 657.451M2726.53 634.11L2750.65 625.685M2726.53 634.11L2637.03 634.11M2615.65 642.2L2637.03 634.11M2637.03 634.11L2659.3 625.685M2842.01 625.685L2869.09 616.903M2842.01 625.685L2750.65 625.685M2842.01 625.685L2933.37 625.685M2750.65 625.685L2775.8 616.903M2750.65 625.685L2659.3 625.685M2659.3 625.685L2682.51 616.903M2869.09 616.903L2775.8 616.903M2869.09 616.903L2962.39 616.903M2802.03 607.74L2775.8 616.903M2802.03 607.74L2829.43 598.174M2802.03 607.74L2706.72 607.74M2775.8 616.903L2682.51 616.903M2962.39 616.903L3055.68 616.903M2962.39 616.903L2933.37 625.685M2682.51 616.903L2706.72 607.74M2933.37 625.685L3024.73 625.685M2829.43 598.174L2858.06 588.174M2829.43 598.174L2732.01 598.174M2706.72 607.74L2732.01 598.174M2732.01 598.174L2758.44 588.174M2957.68 588.174L2989.94 577.711M2957.68 588.174L2858.06 588.174M2957.68 588.174L3057.3 588.174M2858.06 588.174L2888.02 577.711M2858.06 588.174L2758.44 588.174M2758.44 588.174L2786.09 577.711M2989.94 577.711L2888.02 577.711M2919.39 566.753L2888.02 577.711M2919.39 566.753L2952.29 555.264M2919.39 566.753L2815.05 566.753M2888.02 577.711L2786.09 577.711M2786.09 577.711L2815.05 566.753M3057.3 588.174L3125.16 588.174M2952.29 555.264L2986.82 543.203M2952.29 555.264L2845.42 555.264M2815.05 566.753L2845.42 555.264M2845.42 555.264L2877.3 543.203M3096.35 543.203L2986.82 543.203M3096.35 543.203L3125.16 543.203M3096.35 543.203L3125.16 533.86M2986.82 543.203L3023.12 530.528M2986.82 543.203L2877.3 543.203M2877.3 543.203L2910.8 530.528M3061.31 517.189L3023.12 530.528M3061.31 517.189L3101.55 503.134M3061.31 517.189L2946.05 517.189M3061.31 517.189L3125.16 517.189M3023.12 530.528L2910.8 530.528M3023.12 530.528L3125.16 530.528M2910.8 530.528L2946.05 517.189M3125.48 533.757L3125.16 533.86M3101.55 503.134L2983.2 503.134M3101.55 503.134L3125.16 503.134M3101.55 503.134L3125.16 494.889M2946.05 517.189L2983.2 503.134M2983.2 503.134L3022.4 488.302M3022.4 488.302L3063.82 472.63M3022.4 488.302L3125.16 488.302M3107.67 456.041L3063.82 472.63M3107.67 456.041L3125.16 456.041M3107.67 456.041L3125.16 449.424M3063.82 472.63L3125.16 472.63M2973.49 684.697L2999.03 678.255M2973.49 684.697L2895.13 684.697M2973.49 684.697L3051.85 684.697M2871.85 690.914L2849.37 696.917M2871.85 690.914L2895.13 684.697M2871.85 690.914L2794.86 690.914M2849.37 696.917L2773.71 696.917M2849.37 696.917L2827.66 702.717M2902.05 702.717L2827.66 702.717M2902.05 702.717L2879.82 708.325M2902.05 702.717L2976.44 702.717M2895.13 684.697L2919.25 678.255M2895.13 684.697L2816.77 684.697M2794.86 690.914L2773.71 696.917M2794.86 690.914L2816.77 684.697M2773.71 696.917L2753.27 702.717M2827.66 702.717L2753.27 702.717M2827.66 702.717L2806.66 708.325M2816.77 684.697L2839.47 678.255M2678.87 702.717L2660.35 708.325M2678.87 702.717L2753.27 702.717M2753.27 702.717L2733.5 708.325M2999.03 678.255L2919.25 678.255M2999.03 678.255L3078.8 678.255M2944.26 671.576L2919.25 678.255M2944.26 671.576L2970.2 664.646M2944.26 671.576L2863.01 671.576M2919.25 678.255L2839.47 678.255M3078.8 678.255L3051.85 684.697M3078.8 678.255L3125.16 678.255M2839.47 678.255L2863.01 671.576M3051.85 684.697L3125.16 684.697M2970.2 664.646L2997.15 657.451M2970.2 664.646L2887.43 664.646M2863.01 671.576L2887.43 664.646M2887.43 664.646L2912.78 657.451M3081.51 657.451L3111.15 649.974M3081.51 657.451L2997.15 657.451M3081.51 657.451L3125.16 657.451M2997.15 657.451L3025.14 649.974M2997.15 657.451L2912.78 657.451M2912.78 657.451L2939.13 649.974M3054.25 642.2L3025.14 649.974M3054.25 642.2L3084.54 634.11M3054.25 642.2L2966.53 642.2M3054.25 642.2L3125.16 642.2M3025.14 649.974L3111.15 649.974M3025.14 649.974L2939.13 649.974M3111.15 649.974L3125.16 646.441M3111.15 649.974L3125.16 649.974M2939.13 649.974L2966.53 642.2M3084.54 634.11L3116.09 625.685M3084.54 634.11L2995.04 634.11M3084.54 634.11L3125.16 634.11M2966.53 642.2L2995.04 634.11M2995.04 634.11L3024.73 625.685M3116.09 625.685L3024.73 625.685M3116.09 625.685L3125.16 623.262M3116.09 625.685L3125.16 625.685M3024.73 625.685L3055.68 616.903M3087.96 607.74L3055.68 616.903M3087.96 607.74L3121.68 598.174M3087.96 607.74L3125.16 607.74M3055.68 616.903L3125.16 616.903M3125.65 616.903L3125.16 616.903M3121.68 598.174L3125.16 598.174M3121.68 598.174L3125.16 597.186M3126 596.948L3125.16 597.186M3102.82 690.914L3076.38 696.917M3102.82 690.914L3125.16 690.914M3102.82 690.914L3125.16 685.844M3076.38 696.917L3050.83 702.717M3076.38 696.917L3125.16 696.917M2976.44 702.717L2952.97 708.325M2976.44 702.717L3050.83 702.717M3050.83 702.717L3026.13 708.325M3050.83 702.717L3125.16 702.717M538.81 708.325L465.653 708.325M538.81 708.325L611.966 708.325M483.574 713.749L479.15 712.409L465.653 708.325M483.574 713.749L411.612 713.749M465.653 708.325L392.497 708.325M411.612 713.749L406.893 712.409L404.518 711.737L392.497 708.325M392.497 708.325L319.341 708.325M319.341 708.325L246.183 708.325M611.966 708.325L685.122 708.325M246.183 708.325L173.027 708.325M173.027 708.325L195.729 713.749M173.027 708.325L99.8707 708.325M195.729 713.749L123.767 713.749M831.436 708.325L758.278 708.325M831.436 708.325L904.592 708.325M771.421 713.749L768.177 712.409L766.543 711.737L758.278 708.325M771.421 713.749L699.46 713.749M758.278 708.325L685.122 708.325M699.46 713.749L685.122 708.325M904.592 708.325L977.749 708.325M1124.06 708.325L1050.9 708.325M1124.06 708.325L1197.22 708.325M1059.27 713.749L1058.24 713.081L1057.2 712.409L1056.16 711.737L1050.9 708.325M1059.27 713.749L987.307 713.749M1050.9 708.325L977.749 708.325M987.307 713.749L977.749 708.325M1197.22 708.325L1270.38 708.325M1416.69 708.325L1343.53 708.325M1416.69 708.325L1489.84 708.325M1347.11 713.749L1343.53 708.325M1347.11 713.749L1275.15 713.749M1343.53 708.325L1270.38 708.325M1275.15 713.749L1274.56 713.081L1273.97 712.409L1273.38 711.737L1270.38 708.325M1489.84 708.325L1563 708.325M1709.31 708.325L1636.16 708.325M1709.31 708.325L1782.47 708.325M1634.96 713.749L1636.16 708.325M1634.96 713.749L1563 713.749M1636.16 708.325L1563 708.325M1563 713.749L1563 708.325M1782.47 708.325L1855.63 708.325M2001.94 708.325L1928.78 708.325M2001.94 708.325L2075.1 708.325M1922.81 713.749L1924.28 712.41L1927.27 709.698L1928.78 708.325M1922.81 713.749L1850.85 713.749M1928.78 708.325L1855.63 708.325M1850.85 713.749L1851.44 713.081L1852.03 712.41L1852.62 711.737L1855.63 708.325M2075.1 708.325L2148.25 708.325M2294.56 708.325L2221.41 708.325M2294.56 708.325L2367.72 708.325M2210.65 713.749L2213.31 712.41L2214.65 711.737L2221.41 708.325M2210.65 713.749L2138.69 713.749M2221.41 708.325L2148.25 708.325M2138.69 713.749L2139.87 713.081L2148.25 708.325M2367.72 708.325L2440.88 708.325M2587.19 708.325L2514.03 708.325M2587.19 708.325L2660.35 708.325M2498.5 713.749L2502.34 712.41L2504.27 711.737L2514.03 708.325M2498.5 713.749L2426.54 713.749M2514.03 708.325L2440.88 708.325M2426.54 713.749L2428.31 713.081L2440.88 708.325M2660.35 708.325L2733.5 708.325M2879.82 708.325L2806.66 708.325M2879.82 708.325L2952.97 708.325M2786.35 713.749L2806.66 708.325M2786.35 713.749L2714.39 713.749M2806.66 708.325L2733.5 708.325M2714.39 713.749L2719.11 712.41L2721.48 711.737L2733.5 708.325M2952.97 708.325L3026.13 708.325M3074.19 713.749L3099.29 708.325M3074.19 713.749L3002.23 713.749M3074.19 713.749L3125.16 713.749M3099.29 708.325L3026.13 708.325M3099.29 708.325L3125.16 702.731M3099.29 708.325L3125.16 708.325M3002.23 713.749L3008.13 712.41L3026.13 708.325M123.767 713.749L117.866 712.409L99.8707 708.325M99.8707 708.325L26.7144 708.325M26.7144 708.325L0.841139 702.73M26.7144 708.325L0.841139 708.325M0.841161 449.423L0.841161 456.04M0.841161 449.423L0.841162 438.454M0.841161 456.04L0.841159 472.63M0.841162 438.454L0.841163 435.176L0.841164 419.775M0.841164 419.775L0.841166 399.9M0.84115 577.711L0.841149 588.173M0.84115 577.711L0.841151 567.634M0.841138 713.749L0.841139 708.325M0.841139 708.325L0.841139 702.73M0.841139 702.73L0.777774 702.717L0.841139 702.717M0.841139 702.73L0.841139 702.717M0.841139 702.717L0.84114 696.917M0.84114 696.917L0.84114 690.914M0.84114 690.914L0.841141 685.844M0.841141 685.844L0.841141 684.697M0.841141 684.697L0.841141 678.255M0.841141 678.255L0.841142 671.576M0.841142 671.576L0.841142 667.179M0.841142 667.179L0.841143 664.646M0.841143 664.646L0.841143 657.451M0.841143 657.451L0.841144 649.974M0.841144 649.974L0.841144 646.44M0.841144 646.44L0.841145 642.2M0.841145 642.2L0.841145 634.11M0.841145 634.11L0.841146 625.685M0.841146 625.685L0.841146 623.262M0.841146 623.262L0.841147 616.902M0.841147 616.902L0.841148 607.74M0.841148 607.74L0.841148 598.173M0.841148 598.173L0.841149 597.186M0.841149 597.186L0.841149 588.173M0.841151 566.753L0.841152 555.264M0.841151 566.753L0.841151 567.634M0.841152 555.264L0.841153 543.203M0.841153 543.203L0.841154 533.859M0.841154 533.859L0.841154 530.527M0.841154 530.527L0.841156 517.189M0.841156 517.189L0.841157 503.134M0.841157 503.134L0.841157 494.889M0.841157 494.889L0.841158 488.302M0.841158 488.302L0.841159 472.63M0.841166 399.9L0.841166 395.691M0.841166 395.691L0.841168 378.711M0.841168 378.711L0.84117 356.072M0.84117 356.072L0.841172 331.829M0.841172 331.829L0.841172 331.214M0.841172 331.214L0.841174 305.805M0.841174 305.805L0.841176 277.797M0.841176 277.797L0.841179 252.406M0.841179 252.406L0.841179 247.569M0.841179 247.569L0.841182 214.846M0.841182 214.846L0.841185 179.306M0.841185 179.306L0.841187 153.898M0.841187 153.898L0.841188 140.568M0.841188 140.568L0.841192 98.1817M0.841192 98.1817L0.841196 51.6042M0.841196 51.6042L0.841198 27.2437M0.841198 27.2437L0.841201 0.183305M0.841201 0.183305L0.841201 -0.000306729L3125.16 -3.35923e-05L3125.16 0.183578M3125.16 566.753L3125.16 555.264M3125.16 566.753L3125.16 567.634M3125.16 567.634L3125.16 577.711M3125.16 577.711L3125.16 588.174M3125.16 588.174L3125.16 597.186M3125.16 597.186L3125.16 598.174M3125.16 598.174L3125.16 607.74M3125.16 607.74L3125.16 616.903M3125.16 616.903L3125.16 623.262M3125.16 623.262L3125.16 625.685M3125.16 625.685L3125.16 634.11M3125.16 634.11L3125.16 642.2M3125.16 642.2L3125.16 646.441M3125.16 646.441L3125.16 649.974M3125.16 649.974L3125.16 657.451M3125.16 657.451L3125.16 664.646M3125.16 664.646L3125.16 667.18M3125.16 667.18L3125.16 671.576M3125.16 671.576L3125.16 678.255M3125.16 678.255L3125.16 684.697M3125.16 684.697L3125.16 685.844M3125.16 685.844L3125.16 690.914M3125.16 690.914L3125.16 696.917M3125.16 696.917L3125.16 702.717M3125.16 702.717L3125.22 702.717L3125.16 702.731M3125.16 702.717L3125.16 702.731M3125.16 702.731L3125.16 708.325M3125.16 708.325L3125.16 713.749M3125.16 0.183578L3125.16 27.244M3125.16 27.244L3125.16 51.6045M3125.16 51.6045L3125.16 98.1811M3125.16 98.1811L3125.16 140.569M3125.16 140.569L3125.16 153.898M3125.16 153.898L3125.16 179.306M3125.16 179.306L3125.16 214.846M3125.16 214.846L3125.16 247.569M3125.16 247.569L3125.16 252.407M3125.16 252.407L3125.16 277.798M3125.16 277.798L3125.16 305.805M3125.16 305.805L3125.16 331.214M3125.16 331.214L3125.16 331.829M3125.16 331.829L3125.16 356.072M3125.16 356.072L3125.16 378.711M3125.16 378.711L3125.16 395.692M3125.16 395.692L3125.16 399.9M3125.16 399.9L3125.16 419.775M3125.16 419.775L3125.16 438.454M3125.16 438.454L3125.16 449.424M3125.16 449.424L3125.16 456.041M3125.16 456.041L3125.16 472.63M3125.16 472.63L3125.16 488.302M3125.16 488.302L3125.16 494.889M3125.16 494.889L3125.16 503.134M3125.16 503.134L3125.16 517.189M3125.16 517.189L3125.16 530.528M3125.16 530.528L3125.16 533.86M3125.16 533.86L3125.16 543.203M3125.16 543.203L3125.16 555.264" stroke="url(#paint0_radial_174_1733)" stroke-opacity="0.6" stroke-width="1.8895" stroke-miterlimit="10" stroke-linecap="round" stroke-linejoin="round"/>
<defs>
<radialGradient id="paint0_radial_174_1733" cx="0" cy="0" r="1" gradientUnits="userSpaceOnUse" gradientTransform="translate(1563 26.4999) rotate(90) scale(1125.5 4893.34)">
<stop stop-color="#525252"/>
<stop offset="0.489074" stop-color="#CED2DF" stop-opacity="0"/>
</radialGradient>
</defs>
</svg>
